<svg  viewBox="0 0 23 20"  xmlns="http://www.w3.org/2000/svg">
<path d="M1 1H4.81818L7.37636 12.4771C7.46365 12.8718 7.70273 13.2263 8.05175 13.4785C8.40077 13.7308 8.83748 13.8649 9.28545 13.8571H18.5636C19.0116 13.8649 19.4483 13.7308 19.7973 13.4785C20.1464 13.2263 20.3854 12.8718 20.4727 12.4771L22 5.28571H5.77273M9.59091 18.1429C9.59091 18.6162 9.16354 19 8.63636 19C8.10918 19 7.68182 18.6162 7.68182 18.1429C7.68182 17.6695 8.10918 17.2857 8.63636 17.2857C9.16354 17.2857 9.59091 17.6695 9.59091 18.1429ZM20.0909 18.1429C20.0909 18.6162 19.6635 19 19.1364 19C18.6092 19 18.1818 18.6162 18.1818 18.1429C18.1818 17.6695 18.6092 17.2857 19.1364 17.2857C19.6635 17.2857 20.0909 17.6695 20.0909 18.1429Z" />
</svg>
