<svg  viewBox="0 0 40 40" xmlns="http://www.w3.org/2000/svg">
<path d="M24.2734 9.55975C23.909 9.93154 23.7048 10.4314 23.7048 10.952C23.7048 11.4726 23.909 11.9725 24.2734 12.3443L27.4557 15.5266C27.8275 15.891 28.3274 16.0952 28.848 16.0952C29.3686 16.0952 29.8685 15.891 30.2403 15.5266L37.7386 8.02825C38.7387 10.2384 39.0415 12.7008 38.6067 15.0873C38.1719 17.4739 37.02 19.6713 35.3047 21.3866C33.5893 23.102 31.392 24.2538 29.0054 24.6886C26.6188 25.1235 24.1564 24.8207 21.9463 23.8206L8.20264 37.5642C7.41139 38.3555 6.33821 38.8 5.21921 38.8C4.10021 38.8 3.02703 38.3555 2.23578 37.5642C1.44452 36.773 1 35.6998 1 34.5808C1 33.4618 1.44452 32.3886 2.23578 31.5974L15.9795 17.8537C14.9793 15.6436 14.6765 13.1812 15.1114 10.7946C15.5462 8.40803 16.698 6.21066 18.4134 4.49532C20.1287 2.77997 22.3261 1.62813 24.7127 1.19329C27.0992 0.758456 29.5616 1.06127 31.7718 2.06139L24.2734 9.55975Z"  stroke-linecap="round" stroke-linejoin="round"/>
</svg>
