<svg  viewBox="0 0 41 40"  xmlns="http://www.w3.org/2000/svg">
<path d="M36.5287 19.9V38.8H5.12558V19.9M20.8271 38.8V10.45M20.8271 10.45H11.995C10.6937 10.45 9.44561 9.95219 8.52542 9.06608C7.60523 8.17997 7.08827 6.97815 7.08827 5.725C7.08827 4.47185 7.60523 3.27003 8.52542 2.38392C9.44561 1.49781 10.6937 1 11.995 1C18.8644 1 20.8271 10.45 20.8271 10.45ZM20.8271 10.45H29.6592C30.9606 10.45 32.2086 9.95219 33.1288 9.06608C34.049 8.17997 34.566 6.97815 34.566 5.725C34.566 4.47185 34.049 3.27003 33.1288 2.38392C32.2086 1.49781 30.9606 1 29.6592 1C22.7898 1 20.8271 10.45 20.8271 10.45ZM1.2002 10.45H40.454V19.9H1.2002V10.45Z"  stroke-linecap="round" stroke-linejoin="round"/>
</svg>
