<svg viewBox="0 0 47 40" xmlns="http://www.w3.org/2000/svg">
  <path
    d="M31.7421 38.8V34.6C31.7421 32.3722 30.8672 30.2356 29.3098 28.6603C27.7524 27.085 25.6401 26.2 23.4376 26.2H8.90464C6.70214 26.2 4.58985 27.085 3.03244 28.6603C1.47504 30.2356 0.600098 32.3722 0.600098 34.6V38.8M33.8183 17.8L37.9706 22L46.2751 13.6M24.4757 9.4C24.4757 14.0392 20.7576 17.8 16.1711 17.8C11.5846 17.8 7.86658 14.0392 7.86658 9.4C7.86658 4.76081 11.5846 1 16.1711 1C20.7576 1 24.4757 4.76081 24.4757 9.4Z"
    stroke-linecap="round" stroke-linejoin="round" />
</svg>