<svg  viewBox="0 0 44 36"  xmlns="http://www.w3.org/2000/svg">
<path d="M29.4275 25.4998V0.799805H1.2002V25.4998H29.4275ZM29.4275 25.4998H42.6002V15.9998L36.9547 10.2998H29.4275V25.4998ZM14.3729 30.2498C14.3729 32.8732 12.2666 34.9998 9.66838 34.9998C7.07013 34.9998 4.96383 32.8732 4.96383 30.2498C4.96383 27.6265 7.07013 25.4998 9.66838 25.4998C12.2666 25.4998 14.3729 27.6265 14.3729 30.2498ZM38.8366 30.2498C38.8366 32.8732 36.7303 34.9998 34.132 34.9998C31.5338 34.9998 29.4275 32.8732 29.4275 30.2498C29.4275 27.6265 31.5338 25.4998 34.132 25.4998C36.7303 25.4998 38.8366 27.6265 38.8366 30.2498Z"  stroke-linecap="round" stroke-linejoin="round"/>
</svg>
