<svg  viewBox="0 0 15 14"  xmlns="http://www.w3.org/2000/svg">
<path d="M1 1H3.28571L4.81714 8.65143C4.8694 8.91451 5.01252 9.15083 5.22145 9.31903C5.43039 9.48722 5.69183 9.57657 5.96 9.57143H11.5143C11.7825 9.57657 12.0439 9.48722 12.2528 9.31903C12.4618 9.15083 12.6049 8.91451 12.6571 8.65143L13.5714 3.85714H3.85714M6.14286 12.4286C6.14286 12.7442 5.88702 13 5.57143 13C5.25584 13 5 12.7442 5 12.4286C5 12.113 5.25584 11.8571 5.57143 11.8571C5.88702 11.8571 6.14286 12.113 6.14286 12.4286ZM12.4286 12.4286C12.4286 12.7442 12.1727 13 11.8571 13C11.5416 13 11.2857 12.7442 11.2857 12.4286C11.2857 12.113 11.5416 11.8571 11.8571 11.8571C12.1727 11.8571 12.4286 12.113 12.4286 12.4286Z" />
</svg>
