<svg viewBox="0 0 16 18" xmlns="http://www.w3.org/2000/svg">
  <path
    d="M1 4.2H2.6M2.6 4.2H15.4M2.6 4.2V15.4C2.6 15.8243 2.76857 16.2313 3.06863 16.5314C3.36869 16.8314 3.77565 17 4.2 17H12.2C12.6243 17 13.0313 16.8314 13.3314 16.5314C13.6314 16.2313 13.8 15.8243 13.8 15.4V4.2H2.6ZM5 4.2V2.6C5 2.17565 5.16857 1.76869 5.46863 1.46863C5.76869 1.16857 6.17565 1 6.6 1H9.8C10.2243 1 10.6313 1.16857 10.9314 1.46863C11.2314 1.76869 11.4 2.17565 11.4 2.6V4.2M6.6 8.2V13M9.8 8.2V13"
    stroke-linecap="round" stroke-linejoin="round" />
</svg>