<svg viewBox="0 0 25 20"  xmlns="http://www.w3.org/2000/svg">
<path d="M0.0850001 1.8525L11.1787 12.9475C11.5069 13.2759 11.9453 13.4709 12.409 13.4947C12.8727 13.5185 13.3287 13.3694 13.6888 13.0763L13.8312 12.9475L24.9175 1.86C24.9538 1.9975 24.9775 2.1375 24.99 2.28125L25 2.5V17.5C25.0002 18.1307 24.762 18.7382 24.3331 19.2007C23.9043 19.6632 23.3164 19.9464 22.6875 19.9937L22.5 20H2.5C1.86928 20.0002 1.26179 19.762 0.799315 19.3331C0.336838 18.9043 0.0535541 18.3164 0.00625014 17.6875L0 17.5V2.5C0 2.35 0.0125 2.205 0.0375 2.0625L0.0850001 1.8525ZM22.5 0C22.6512 0 22.8 0.0125002 22.9437 0.0387502L23.1562 0.0875002L12.5062 10.7375L1.8525 0.0849998C1.99 0.0474998 2.1325 0.0224999 2.2775 0.00999987L2.5 0H22.5Z" />
</svg>
