<svg viewBox="0 0 25 25" xmlns="http://www.w3.org/2000/svg">
  <path
    d="M23.6111 12.5C23.2407 12.5 22.9111 12.3667 22.6222 12.1C22.3324 11.8343 22.1644 11.5046 22.1181 11.1111C21.8171 8.95833 20.9088 7.12361 19.3931 5.60694C17.8764 4.0912 16.0417 3.18287 13.8889 2.88194C13.4954 2.83565 13.1657 2.67361 12.9 2.39583C12.6333 2.11806 12.5 1.78241 12.5 1.38889C12.5 0.99537 12.6389 0.665278 12.9167 0.398611C13.1944 0.13287 13.5185 0.0231481 13.8889 0.0694444C16.8056 0.393518 19.294 1.58565 21.3542 3.64583C23.4144 5.70602 24.6065 8.19444 24.9306 11.1111C24.9769 11.4815 24.8667 11.8056 24.6 12.0833C24.3343 12.3611 24.0046 12.5 23.6111 12.5ZM17.8125 12.5C17.5116 12.5 17.2454 12.3958 17.0139 12.1875C16.7824 11.9792 16.6088 11.7014 16.4931 11.3542C16.3079 10.6829 15.9551 10.0866 15.4347 9.56528C14.9134 9.04491 14.3171 8.69213 13.6458 8.50694C13.2986 8.3912 13.0208 8.21759 12.8125 7.98611C12.6042 7.75463 12.5 7.47685 12.5 7.15278C12.5 6.68981 12.662 6.31343 12.9861 6.02361C13.3102 5.73472 13.669 5.63657 14.0625 5.72917C15.3588 6.03009 16.4759 6.64907 17.4139 7.58611C18.3509 8.52407 18.9699 9.6412 19.2708 10.9375C19.3634 11.331 19.2593 11.6898 18.9583 12.0139C18.6574 12.338 18.2755 12.5 17.8125 12.5ZM23.5417 25C20.5556 25 17.6449 24.3343 14.8097 23.0028C11.9736 21.6722 9.46204 19.913 7.275 17.725C5.08704 15.538 3.32778 13.0264 1.99722 10.1903C0.665741 7.35509 0 4.44444 0 1.45833C0 1.04167 0.138889 0.694444 0.416667 0.416667C0.694444 0.138889 1.04167 0 1.45833 0H7.08333C7.40741 0 7.69676 0.104167 7.95139 0.3125C8.20602 0.520833 8.35648 0.787037 8.40278 1.11111L9.30556 5.97222C9.35185 6.2963 9.3463 6.5912 9.28889 6.85694C9.23055 7.12361 9.09722 7.36111 8.88889 7.56944L5.55556 10.9722C6.52778 12.6389 7.74306 14.2014 9.20139 15.6597C10.6597 17.1181 12.2685 18.3796 14.0278 19.4444L17.2917 16.1806C17.5 15.9722 17.7722 15.8157 18.1083 15.7111C18.4435 15.6074 18.7731 15.5787 19.0972 15.625L23.8889 16.5972C24.213 16.6667 24.4792 16.8227 24.6875 17.0653C24.8958 17.3088 25 17.5926 25 17.9167V23.5417C25 23.9583 24.8611 24.3056 24.5833 24.5833C24.3056 24.8611 23.9583 25 23.5417 25Z"
  />
</svg>