<svg viewBox="0 0 9 12" xmlns="http://www.w3.org/2000/svg">
  <path
    d="M1.46218 12V0H4.62185C6.08964 0 7.17647 0.296919 7.88235 0.890757C8.59944 1.48459 8.95798 2.34734 8.95798 3.47899C8.95798 4.2409 8.78432 4.89636 8.43698 5.44538C8.08964 5.98319 7.57423 6.39776 6.89076 6.68908C6.21849 6.98039 5.38375 7.12605 4.38656 7.12605H2.97479V12H1.46218ZM0 9.71429V8.62185H5.7479V9.71429H0ZM0 7.12605V5.84874H3.84874V7.12605H0ZM4.16807 5.84874C4.85154 5.84874 5.42857 5.77591 5.89916 5.63025C6.38095 5.48459 6.7507 5.2437 7.0084 4.90756C7.26611 4.57143 7.39496 4.11205 7.39496 3.52941C7.39496 2.76751 7.15966 2.20168 6.68908 1.83193C6.21849 1.46219 5.48459 1.27731 4.4874 1.27731H2.97479V5.84874H4.16807Z"
  />
</svg>