<svg  viewBox="0 0 13 11"  xmlns="http://www.w3.org/2000/svg">
<path d="M11.9347 0.091968C11.9347 0.091968 13.091 -0.358918 12.9943 0.736006C12.9624 1.18689 12.6734 2.76514 12.4484 4.47196L11.6776 9.52844C11.6776 9.52844 11.6133 10.2692 11.0351 10.3981C10.4571 10.5266 9.58984 9.94718 9.42913 9.81832C9.30056 9.72159 7.02023 8.27221 6.21727 7.56389C5.99227 7.37044 5.73513 6.98413 6.24941 6.53325L9.62168 3.31246C10.0071 2.92615 10.3925 2.02438 8.78658 3.11931L4.28962 6.17879C4.28962 6.17879 3.77564 6.5011 2.81226 6.21123L0.724191 5.56689C0.724191 5.56689 -0.0466308 5.08386 1.27031 4.60083C4.48247 3.08716 8.43331 1.54135 11.9341 0.091968H11.9347Z" />
</svg>
