<svg  viewBox="0 0 14 14"  xmlns="http://www.w3.org/2000/svg">
<path d="M11.375 2.56878C10.802 1.98999 10.1195 1.53108 9.36725 1.21882C8.61504 0.906558 7.80818 0.7472 6.99373 0.750037C3.58124 0.750037 0.8 3.53128 0.8 6.94377C0.8 8.03752 1.0875 9.10001 1.625 10.0375L0.75 13.25L4.03124 12.3875C4.93749 12.8813 5.95623 13.1438 6.99373 13.1438C10.4062 13.1438 13.1875 10.3625 13.1875 6.95002C13.1875 5.29377 12.5437 3.73753 11.375 2.56878ZM6.99373 12.0938C6.06873 12.0938 5.16249 11.8438 4.36874 11.375L4.18124 11.2625L2.23125 11.775L2.74999 9.87501L2.62499 9.68126C2.11109 8.86062 1.83821 7.91204 1.8375 6.94377C1.8375 4.10628 4.14999 1.79378 6.98748 1.79378C8.36248 1.79378 9.65622 2.33128 10.625 3.30628C11.1046 3.78376 11.4848 4.35169 11.7433 4.97717C12.0019 5.60264 12.1337 6.27321 12.1312 6.95002C12.1437 9.78751 9.83122 12.0938 6.99373 12.0938ZM9.81872 8.24376C9.66247 8.16877 8.89998 7.79377 8.76248 7.73752C8.61873 7.68752 8.51873 7.66252 8.41248 7.81252C8.30623 7.96877 8.01248 8.31876 7.92498 8.41876C7.83748 8.52501 7.74373 8.53751 7.58748 8.45626C7.43123 8.38126 6.93123 8.21251 6.34373 7.68752C5.88123 7.27502 5.57499 6.76877 5.48124 6.61252C5.39374 6.45627 5.46874 6.37502 5.54999 6.29377C5.61874 6.22502 5.70624 6.11252 5.78124 6.02502C5.85624 5.93752 5.88749 5.86877 5.93748 5.76877C5.98748 5.66252 5.96248 5.57502 5.92498 5.50002C5.88748 5.42502 5.57499 4.66253 5.44999 4.35003C5.32499 4.05003 5.19374 4.08753 5.09999 4.08128H4.79999C4.69374 4.08128 4.53124 4.11878 4.38749 4.27503C4.24999 4.43128 3.84999 4.80628 3.84999 5.56877C3.84999 6.33127 4.40624 7.06877 4.48124 7.16877C4.55624 7.27502 5.57499 8.83751 7.12498 9.50626C7.49373 9.66876 7.78123 9.76251 8.00623 9.83126C8.37498 9.95001 8.71248 9.93126 8.98123 9.89376C9.28123 9.85001 9.89997 9.51876 10.025 9.15626C10.1562 8.79376 10.1562 8.48751 10.1125 8.41876C10.0687 8.35001 9.97497 8.31876 9.81872 8.24376Z" />
</svg>
