<svg viewBox="0 0 30 18" xmlns="http://www.w3.org/2000/svg">
  <path fill-rule="evenodd" clip-rule="evenodd"
    d="M26.7031 12.0225C26.7031 12.0225 29.1286 14.418 29.7286 15.5265C29.7403 15.5425 29.7494 15.5602 29.7556 15.579C30.0001 15.9885 30.0601 16.3095 29.9401 16.5465C29.7376 16.938 29.0521 17.1345 28.8196 17.151H24.5326C24.2341 17.151 23.6131 17.073 22.8571 16.551C22.2796 16.1475 21.7051 15.483 21.1486 14.8335C20.3176 13.869 19.5991 13.032 18.8716 13.032C18.7798 13.0318 18.6885 13.047 18.6016 13.077C18.0511 13.251 17.3521 14.0355 17.3521 16.125C17.3521 16.779 16.8361 17.151 16.4746 17.151H14.5111C13.8421 17.151 10.3591 16.917 7.27064 13.6605C3.48614 9.6735 0.0871351 1.6755 0.0541351 1.605C-0.157365 1.0875 0.286635 0.8055 0.766635 0.8055H5.09564C5.67614 0.8055 5.86514 1.1565 5.99714 1.4715C6.15014 1.833 6.71714 3.279 7.64714 4.9035C9.15314 7.5465 10.0786 8.622 10.8181 8.622C10.9571 8.62241 11.0937 8.58619 11.2141 8.517C12.1801 7.986 12.0001 4.536 11.9551 3.825C11.9551 3.687 11.9536 2.2845 11.4586 1.6065C11.1046 1.1205 10.5016 0.9315 10.1371 0.8625C10.2346 0.7215 10.4416 0.5055 10.7071 0.378C11.3686 0.0479998 12.5641 0 13.7506 0H14.4091C15.6961 0.018 16.0291 0.1005 16.4971 0.219C17.4391 0.444 17.4571 1.0545 17.3746 3.1335C17.3506 3.7275 17.3251 4.3965 17.3251 5.184C17.3251 5.352 17.3176 5.5395 17.3176 5.73C17.2891 6.7965 17.2516 7.998 18.0046 8.4915C18.1023 8.55234 18.2151 8.58456 18.3301 8.5845C18.5911 8.5845 19.3726 8.5845 21.4921 4.947C22.4221 3.3405 23.1421 1.446 23.1916 1.3035C23.2336 1.224 23.3596 1.0005 23.5126 0.9105C23.6215 0.852593 23.7434 0.823666 23.8666 0.8265H28.9591C29.5141 0.8265 29.8906 0.9105 29.9641 1.1205C30.0871 1.461 29.9401 2.5005 27.6151 5.6445C27.2236 6.168 26.8801 6.621 26.5786 7.017C24.4711 9.783 24.4711 9.9225 26.7031 12.0225Z"
  />
</svg>