<svg  viewBox="0 0 25 30"  xmlns="http://www.w3.org/2000/svg">
<path d="M9.75 0H8.0625L6.9375 4.3125L5.8125 0H3.9375C4.3125 1.125 4.6875 2.0625 5.0625 3.1875C5.625 4.6875 6 6 6 6.75V11.25H7.6875V6.75L9.75 0ZM14.25 8.4375V5.625C14.25 4.6875 14.0625 4.125 13.6875 3.5625C13.3125 3 12.75 2.8125 12 2.8125C11.25 2.8125 10.6875 3.1875 10.3125 3.75C9.9375 4.125 9.75 4.6875 9.75 5.625V8.625C9.75 9.5625 9.9375 10.125 10.3125 10.5C10.6875 11.0625 11.25 11.25 12 11.25C12.75 11.25 13.3125 10.875 13.6875 10.3125C14.0625 10.125 14.25 9.375 14.25 8.4375ZM12.75 8.8125C12.75 9.5625 12.5625 9.9375 12 9.9375C11.4375 9.9375 11.25 9.5625 11.25 8.8125V5.25C11.25 4.5 11.4375 4.125 12 4.125C12.5625 4.125 12.75 4.5 12.75 5.25V8.8125ZM19.875 11.25V2.8125H18.375V9.1875C18 9.75 17.8125 9.9375 17.4375 9.9375C17.25 9.9375 17.0625 9.75 17.0625 9.5625V2.8125H15.5625V9.375C15.5625 9.9375 15.5625 10.3125 15.75 10.6875C15.75 11.0625 16.125 11.25 16.6875 11.25C17.25 11.25 17.8125 10.875 18.375 10.3125V11.25H19.875ZM20.625 19.6875C20.0625 19.6875 19.875 20.0625 19.875 20.8125V21.5625H21.375V20.8125C21.375 20.0625 21.1875 19.6875 20.625 19.6875ZM15.1875 19.6875C15 19.6875 14.625 19.875 14.4375 20.0625V25.125C14.625 25.3125 15 25.5 15.1875 25.5C15.5625 25.5 15.75 25.125 15.75 24.375V20.8125C15.75 20.0625 15.5625 19.6875 15.1875 19.6875Z" />
<path d="M24.375 15.5625C24 14.25 22.875 13.125 21.75 13.125C18.75 12.75 15.5625 12.75 12.375 12.75C9.1875 12.75 6.1875 12.75 3 13.125C1.875 13.125 0.75 14.25 0.375 15.5625C8.9407e-08 17.4375 0 19.5 0 21.375C0 23.25 8.9407e-08 25.3125 0.375 27.1875C0.75 28.5 1.6875 29.4375 3 29.625C6.1875 30 9.1875 30 12.375 30C15.5625 30 18.5625 30 21.75 29.625C23.0625 29.4375 24.1875 28.5 24.375 27.1875C24.75 25.3125 24.75 23.25 24.75 21.375C24.75 19.5 24.75 17.4375 24.375 15.5625ZM7.125 17.25H5.25V26.8125H3.5625V17.25H1.875V15.5625H7.125V17.25ZM11.625 26.8125H10.125V25.875C9.5625 26.625 9 26.8125 8.4375 26.8125C7.875 26.8125 7.6875 26.625 7.5 26.25C7.5 26.0625 7.3125 25.6875 7.3125 24.9375V18.375H8.8125V24.9375C8.8125 25.125 9 25.3125 9.1875 25.3125C9.5625 25.3125 9.75 25.125 10.125 24.5625V18.375H11.625V26.8125ZM17.25 24.1875C17.25 24.9375 17.25 25.5 17.0625 25.875C16.875 26.4375 16.5 26.8125 15.9375 26.8125C15.375 26.8125 14.8125 26.4375 14.4375 25.875V26.625H12.9375V15.5625H14.4375V19.125C15 18.5625 15.375 18.1875 15.9375 18.1875C16.5 18.1875 16.875 18.5625 17.0625 19.125C17.25 19.5 17.25 20.0625 17.25 20.8125V24.1875ZM22.875 22.875H19.875V24.375C19.875 25.125 20.0625 25.5 20.625 25.5C21 25.5 21.1875 25.3125 21.375 24.9375V24H22.875V25.125C22.875 25.5 22.6875 25.6875 22.5 26.0625C22.125 26.625 21.5625 27 20.625 27C19.875 27 19.3125 26.625 18.75 26.0625C18.375 25.6875 18.1875 24.9375 18.1875 24.1875V21.375C18.1875 20.4375 18.375 19.875 18.5625 19.5C18.9375 18.9375 19.5 18.5625 20.4375 18.5625C21.1875 18.5625 21.75 18.9375 22.125 19.5C22.5 19.875 22.5 20.625 22.5 21.375V22.875H22.875Z" />
</svg>
