<svg width="14" height="14" viewBox="0 0 14 14" fill="none" xmlns="http://www.w3.org/2000/svg">
<path d="M11.8 7V13H2.2V7M7 13V4M7 4H4.3C3.90218 4 3.52064 3.84196 3.23934 3.56066C2.95804 3.27936 2.8 2.89782 2.8 2.5C2.8 2.10218 2.95804 1.72064 3.23934 1.43934C3.52064 1.15804 3.90218 1 4.3 1C6.4 1 7 4 7 4ZM7 4H9.7C10.0978 4 10.4794 3.84196 10.7607 3.56066C11.042 3.27936 11.2 2.89782 11.2 2.5C11.2 2.10218 11.042 1.72064 10.7607 1.43934C10.4794 1.15804 10.0978 1 9.7 1C7.6 1 7 4 7 4ZM1 4H13V7H1V4Z" stroke="white" stroke-linecap="round" stroke-linejoin="round"/>
</svg>
