<svg width="23" height="24" viewBox="0 0 23 24" fill="none" xmlns="http://www.w3.org/2000/svg">
<path d="M21.7488 11.3136L11.9392 21.1231C10.7375 22.3249 9.10756 23 7.40805 23C5.70853 23 4.07861 22.3249 2.87687 21.1231C1.67513 19.9214 1 18.2915 1 16.592C1 14.8924 1.67513 13.2625 2.87687 12.0608L12.6864 2.25125C13.4876 1.45009 14.5742 1 15.7072 1C16.8402 1 17.9268 1.45009 18.728 2.25125C19.5291 3.05241 19.9792 4.13902 19.9792 5.27203C19.9792 6.40504 19.5291 7.49165 18.728 8.29281L8.90776 18.1023C8.50718 18.5029 7.96388 18.728 7.39737 18.728C6.83086 18.728 6.28756 18.5029 5.88698 18.1023C5.4864 17.7018 5.26136 17.1585 5.26136 16.592C5.26136 16.0254 5.4864 15.4821 5.88698 15.0816L14.9493 6.02989" stroke="#BDBDBD" stroke-width="2" stroke-linecap="round" stroke-linejoin="round"/>
</svg>
