<svg width="52" height="52" viewBox="0 0 52 52" fill="none" xmlns="http://www.w3.org/2000/svg">
<path d="M36 15.9984V28.4984C36 30.4876 36.7902 32.3952 38.1967 33.8017C39.6032 35.2083 41.5109 35.9984 43.5 35.9984C45.4891 35.9984 47.3968 35.2083 48.8033 33.8017C50.2098 32.3952 51 30.4876 51 28.4984V25.9984C50.9996 20.356 49.0906 14.8796 45.5832 10.4598C42.0758 6.03991 37.1764 2.93651 31.6816 1.65419C26.1868 0.371873 20.4198 0.986053 15.3184 3.39687C10.2169 5.80768 6.08101 9.87333 3.58317 14.9327C1.08532 19.9922 0.372439 25.7478 1.56044 31.2637C2.74845 36.7797 5.76746 41.7315 10.1266 45.3141C14.4857 48.8967 19.9286 50.8993 25.5702 50.9963C31.2118 51.0933 36.7203 49.279 41.2 45.8484M36 25.9984C36 31.5213 31.5229 35.9984 26 35.9984C20.4772 35.9984 16 31.5213 16 25.9984C16 20.4756 20.4772 15.9984 26 15.9984C31.5229 15.9984 36 20.4756 36 25.9984Z" stroke="#787878" stroke-width="2" stroke-linecap="round" stroke-linejoin="round"/>
</svg>
