<svg width="50" height="50" viewBox="0 0 50 50" fill="none" xmlns="http://www.w3.org/2000/svg">
<path d="M48.5153 37.0347V44.2021C48.518 44.8675 48.3817 45.5261 48.1151 46.1358C47.8486 46.7454 47.4576 47.2927 46.9673 47.7425C46.477 48.1923 45.8982 48.5348 45.2679 48.7479C44.6376 48.9611 43.9697 49.0403 43.307 48.9804C35.9552 48.1815 28.8934 45.6694 22.6888 41.6457C16.9163 37.9776 12.0221 33.0835 8.35402 27.311C4.31634 21.0782 1.80361 13.982 1.01939 6.59721C0.959689 5.93653 1.03821 5.27067 1.24994 4.642C1.46168 4.01334 1.802 3.43565 2.24923 2.94571C2.69647 2.45578 3.24082 2.06433 3.84762 1.7963C4.45443 1.52827 5.1104 1.38953 5.77376 1.3889H12.9412C14.1006 1.37749 15.2247 1.78808 16.1038 2.54413C16.9829 3.30018 17.5571 4.3501 17.7194 5.49821C18.0219 7.79193 18.583 10.0441 19.3918 12.2117C19.7132 13.0668 19.7828 13.9961 19.5923 14.8896C19.4017 15.783 18.959 16.6031 18.3167 17.2527L15.2825 20.2869C18.6836 26.2682 23.636 31.2206 29.6173 34.6217L32.6515 31.5875C33.3011 30.9452 34.1212 30.5025 35.0146 30.3119C35.9081 30.1214 36.8374 30.191 37.6925 30.5124C39.8601 31.3212 42.1123 31.8823 44.406 32.1848C45.5666 32.3485 46.6265 32.9331 47.3841 33.8273C48.1418 34.7215 48.5444 35.863 48.5153 37.0347Z" stroke="#787878" stroke-width="2" stroke-linecap="round" stroke-linejoin="round"/>
</svg>
