<svg width="43" height="52" viewBox="0 0 43 52" fill="none" xmlns="http://www.w3.org/2000/svg">
<path d="M41.9091 21.4545C41.9091 37.3636 21.4545 51 21.4545 51C21.4545 51 1 37.3636 1 21.4545C1 16.0297 3.15503 10.827 6.991 6.991C10.827 3.15503 16.0297 1 21.4545 1C26.8794 1 32.0821 3.15503 35.9181 6.991C39.7541 10.827 41.9091 16.0297 41.9091 21.4545Z" stroke="#787878" stroke-width="2" stroke-linecap="round" stroke-linejoin="round"/>
<path d="M21.4545 28.2727C25.2201 28.2727 28.2727 25.2201 28.2727 21.4545C28.2727 17.689 25.2201 14.6364 21.4545 14.6364C17.689 14.6364 14.6364 17.689 14.6364 21.4545C14.6364 25.2201 17.689 28.2727 21.4545 28.2727Z" stroke="#787878" stroke-width="2" stroke-linecap="round" stroke-linejoin="round"/>
</svg>
