<svg width="52" height="52" viewBox="0 0 52 52" fill="none" xmlns="http://www.w3.org/2000/svg">
<path d="M50.9999 24.6112C51.0095 28.2774 50.1529 31.8942 48.4999 35.1667C46.54 39.0882 43.527 42.3866 39.7984 44.6925C36.0698 46.9983 31.7728 48.2205 27.3888 48.2222C23.7226 48.2318 20.1058 47.3752 16.8333 45.7222L1 51L6.27777 35.1667C4.6248 31.8942 3.76821 28.2774 3.77777 24.6112C3.77947 20.2272 5.00169 15.9302 7.30754 12.2016C9.61339 8.47298 12.9118 5.45998 16.8333 3.50008C20.1058 1.84711 23.7226 0.99052 27.3888 1.00008H28.7777C34.5676 1.3195 40.0362 3.7633 44.1364 7.86357C48.2367 11.9638 50.6805 17.4324 50.9999 23.2223V24.6112Z" stroke="#787878" stroke-width="2" stroke-linecap="round" stroke-linejoin="round"/>
<circle cx="15" cy="25" r="4" fill="#787878"/>
<circle cx="27" cy="25" r="4" fill="#787878"/>
<circle cx="39" cy="25" r="4" fill="#787878"/>
</svg>
