<svg width="33" height="28" viewBox="0 0 33 28" fill="none" xmlns="http://www.w3.org/2000/svg">
<path d="M32 24.1111C32 24.8773 31.7031 25.6121 31.1746 26.1539C30.6461 26.6956 29.9292 27 29.1818 27H3.81818C3.07075 27 2.35394 26.6956 1.82543 26.1539C1.29691 25.6121 1 24.8773 1 24.1111V8.22222C1 7.45604 1.29691 6.72124 1.82543 6.17947C2.35394 5.6377 3.07075 5.33333 3.81818 5.33333H9.45455L12.2727 1H20.7273L23.5455 5.33333H29.1818C29.9292 5.33333 30.6461 5.6377 31.1746 6.17947C31.7031 6.72124 32 7.45604 32 8.22222V24.1111Z" fill="#BDBDBD"/>
<path d="M16.5 21.2222C19.6129 21.2222 22.1364 18.6354 22.1364 15.4444C22.1364 12.2535 19.6129 9.66667 16.5 9.66667C13.3871 9.66667 10.8636 12.2535 10.8636 15.4444C10.8636 18.6354 13.3871 21.2222 16.5 21.2222Z" fill="#BDBDBD"/>
<path d="M32 24.1111C32 24.8773 31.7031 25.6121 31.1746 26.1539C30.6461 26.6956 29.9292 27 29.1818 27H3.81818C3.07075 27 2.35394 26.6956 1.82543 26.1539C1.29691 25.6121 1 24.8773 1 24.1111V8.22222C1 7.45604 1.29691 6.72124 1.82543 6.17947C2.35394 5.6377 3.07075 5.33333 3.81818 5.33333H9.45455L12.2727 1H20.7273L23.5455 5.33333H29.1818C29.9292 5.33333 30.6461 5.6377 31.1746 6.17947C31.7031 6.72124 32 7.45604 32 8.22222V24.1111Z" stroke="white" stroke-linecap="round" stroke-linejoin="round"/>
<path d="M16.5 21.2222C19.6129 21.2222 22.1364 18.6354 22.1364 15.4444C22.1364 12.2535 19.6129 9.66667 16.5 9.66667C13.3871 9.66667 10.8636 12.2535 10.8636 15.4444C10.8636 18.6354 13.3871 21.2222 16.5 21.2222Z" stroke="white" stroke-linecap="round" stroke-linejoin="round"/>
</svg>
