<svg width="36" height="24" viewBox="0 0 36 24" fill="none" xmlns="http://www.w3.org/2000/svg">
<path d="M3.85714 0C1.74214 0 0 1.626 0 3.6V20.4C0 22.374 1.74214 24 3.85714 24H32.1429C34.2579 24 36 22.374 36 20.4V3.6C36 1.626 34.2579 0 32.1429 0H3.85714ZM3.85714 2.4H32.1429C32.8693 2.4 33.4286 2.922 33.4286 3.6V20.4C33.4286 21.078 32.8693 21.6 32.1429 21.6H3.85714C3.13071 21.6 2.57143 21.078 2.57143 20.4V3.6C2.57143 2.922 3.13071 2.4 3.85714 2.4ZM22.3791 7.65C19.9029 7.65 18.603 8.79 18.603 10.2372C18.603 12.8568 21.8944 12.4932 21.8944 13.8372C21.8944 14.0688 21.6887 14.5896 20.3259 14.5896C18.963 14.5896 18.0759 14.1396 18.0759 14.1396L17.6773 15.8676C17.6773 15.8676 18.5194 16.3536 20.2101 16.3536C21.8944 16.3536 24.2653 15.144 24.2653 13.3896C24.2653 11.2824 20.97 11.1432 20.97 10.2036C20.97 9.7236 21.4071 9.3396 22.5771 9.3396C23.3409 9.3396 24.1843 9.9036 24.1843 9.9036L24.588 8.0676C24.588 8.0676 23.4694 7.6536 22.3766 7.6536L22.3791 7.65ZM11.8131 7.8L9.64286 13.7256C9.64286 13.7256 9.53486 13.212 9.48214 12.9C8.25429 10.332 6.26786 9.3744 6.26786 9.3744L8.15786 16.0872H10.7293L14.3421 7.8H11.8131ZM15.2679 7.8L13.8613 16.0872H16.2347L17.64 7.8H15.2679ZM28.0453 7.8L24.1881 16.0872H26.5179L27 14.9256H29.9739L30.2143 16.0872H32.3434L30.5357 7.8H28.0453ZM3.65529 7.836C3.65529 7.836 8.28 9.162 9.36129 12.4128L8.56029 8.6628C8.56029 8.6628 8.20671 7.8348 7.27457 7.8348H3.65657L3.65529 7.836ZM28.9286 10.2L29.61 13.3128H27.6814L28.9286 10.2Z" fill="#BDBDBD"/>
</svg>
