<svg width="58" height="16" viewBox="0 0 58 16" fill="none" xmlns="http://www.w3.org/2000/svg">
<path fill-rule="evenodd" clip-rule="evenodd" d="M15.6292 3.04419e-07V0.0069872C15.622 0.0069872 13.3637 3.31713e-07 12.7614 2.10306C12.2094 4.03144 10.6536 9.35546 10.6106 9.50218H10.1805C10.1805 9.50218 8.58887 4.05939 8.02967 2.09607C7.42744 -0.00698654 5.16193 3.04419e-07 5.16193 3.04419e-07H0V16H5.16193V6.49782H5.59209L8.60321 16H12.1879L15.199 6.5048H15.6292V16H20.7911V3.04419e-07H15.6292Z" fill="#BDBDBD"/>
<path fill-rule="evenodd" clip-rule="evenodd" d="M34.4846 7.5773e-07C34.4846 7.5773e-07 32.9718 0.132752 32.2621 1.67686L28.6057 9.50218H28.1755V7.5773e-07H23.0136V16H27.8888C27.8888 16 29.4732 15.8603 30.1829 14.3231L33.7676 6.49782H34.1978V16H39.3597V7.5773e-07H34.4846Z" fill="#BDBDBD"/>
<path fill-rule="evenodd" clip-rule="evenodd" d="M41.6539 7.26638V16H46.8158V10.8996H52.4079C54.8455 10.8996 56.9103 9.38341 57.6774 7.26638H41.6539Z" fill="#BDBDBD"/>
<path fill-rule="evenodd" clip-rule="evenodd" d="M52.4079 7.5773e-07H40.9298C41.5033 3.04629 43.8477 5.4917 46.8804 6.28821C47.5686 6.46987 48.2927 6.56769 49.0383 6.56769H57.8853C57.9642 6.20437 58 5.83406 58 5.44978C58 2.43843 55.4979 7.5773e-07 52.4079 7.5773e-07Z" fill="#BDBDBD"/>
</svg>
