<svg width="38" height="24" viewBox="0 0 38 24" fill="none" xmlns="http://www.w3.org/2000/svg">
<path d="M25.2193 24C22.6912 24.0004 20.2197 23.2969 18.1174 21.9786C16.0151 20.6603 14.3765 18.7864 13.4086 16.5938C12.4408 14.4013 12.1873 11.9885 12.6801 9.66067C13.173 7.33283 14.3901 5.19446 16.1775 3.51598C17.9649 1.83751 20.2423 0.694299 22.7218 0.23093C25.2013 -0.232438 27.7715 0.00484243 30.1074 0.912768C32.4432 1.82069 34.4398 3.35849 35.8447 5.33168C37.2496 7.30487 37.9996 9.62484 38 11.9982V12C37.9965 15.1813 36.6489 18.2313 34.2529 20.481C31.8568 22.7307 28.6081 23.9962 25.2193 24Z" fill="#E7E7E7" fill-opacity="0.5"/>
<path d="M12.7826 24C10.2544 24 7.78304 23.2962 5.68096 21.9776C3.57887 20.6591 1.9405 18.7849 0.97302 16.5922C0.0055385 14.3995 -0.247599 11.9867 0.245619 9.65892C0.738837 7.33115 1.95626 5.19295 3.74393 3.51472C5.5316 1.83649 7.80924 0.693604 10.2888 0.230582C12.7684 -0.232441 15.3385 0.00519974 17.6742 0.913451C20.0099 1.8217 22.0063 3.35977 23.4109 5.33316C24.8154 7.30655 25.5651 9.62663 25.5651 12C25.5616 15.1816 24.2137 18.2319 21.8173 20.4816C19.4209 22.7313 16.1716 23.9967 12.7826 24Z" fill="white" fill-opacity="0.5"/>
</svg>
