<svg width="35" height="24" viewBox="0 0 35 24" fill="none" xmlns="http://www.w3.org/2000/svg">
<path d="M3.75 0C1.69375 0 0 1.626 0 3.6V20.4C0 22.374 1.69375 24 3.75 24H31.25C33.3063 24 35 22.374 35 20.4V3.6C35 1.626 33.3063 0 31.25 0H3.75ZM3.75 2.4H31.25C31.9575 2.4 32.5 2.9208 32.5 3.6V20.4C32.5 21.0792 31.9575 21.6 31.25 21.6H3.75C3.0425 21.6 2.5 21.0792 2.5 20.4V3.6C2.5 2.9208 3.0425 2.4 3.75 2.4ZM7.695 6C6.1625 6 5 6.9324 5 8.55V18H9.9225C11.1225 18 12.5 16.926 12.5 15.5244V6H7.695ZM16.445 6C14.9175 6 13.75 6.9372 13.75 8.55V17.9256H18.6725C19.8687 17.9256 21.25 16.8468 21.25 15.45V6H16.445ZM25.195 6C23.6675 6 22.5 6.9372 22.5 8.55V17.9256H27.3825C28.5737 17.9256 30 16.8468 30 15.45V6H25.195ZM16.7188 9.6H20.3125V10.35C19.4525 10.158 18.6125 10.05 18.2025 10.05C17.305 10.05 16.6025 10.7904 16.6025 11.7C16.6025 12.6096 17.305 13.3128 18.2025 13.3128C18.6138 13.3128 19.4525 13.242 20.3125 13.05V13.7628H16.7188C15.6 13.7628 14.6488 12.834 14.6488 11.7C14.6488 10.566 15.6 9.6 16.7188 9.6ZM23.555 9.6H28.1637C28.7262 9.6 29.18 10.074 29.18 10.6128C29.18 11.1468 28.8037 11.6628 28.2425 11.6628C28.8775 11.6628 29.375 12.1404 29.375 12.6756C29.375 13.2144 28.8775 13.7256 28.2425 13.7256H23.555V9.6ZM9.33625 9.6372H11.485V11.9628C11.485 13.2564 9.75125 13.95 8.47625 13.95C7.08875 13.95 5.85 13.158 5.58625 12.15H6.52375C6.63625 12.7644 7.25625 13.2 7.96875 13.2C8.755 13.2 9.33625 12.648 9.33625 11.9628V9.6372ZM25.3125 10.0128V11.4H26.7975C26.9821 11.3943 27.1576 11.3212 27.2881 11.1957C27.4186 11.0702 27.4944 10.9017 27.5 10.7244C27.5 10.3692 27.1675 10.0128 26.7962 10.0128H25.3125ZM25.3125 11.9256V13.3128H26.8363C27.2113 13.3128 27.5387 12.9936 27.5387 12.6372C27.5387 12.2772 27.2125 11.9256 26.8363 11.9256H25.3125Z" fill="#BDBDBD"/>
</svg>
