<svg width="0" height="0" position="absolute"><symbol id="arrow-catalog" viewBox="0 0 21 21" xmlns="http://www.w3.org/2000/svg"><path d="M20 10.5H1M1 10.5L10.5 20M1 10.5L10.5 1"></path></symbol><symbol id="arrow-slider" viewBox="0 0 21 21" xmlns="http://www.w3.org/2000/svg"><path d="M1 10.5H20M20 10.5L10.5 20M20 10.5L10.5 1" stroke-width="2" stroke-linecap="round" stroke-linejoin="round"></path></symbol><symbol id="brands-2" viewBox="0 0 41 40" xmlns="http://www.w3.org/2000/svg"><path d="M36.5287 19.9V38.8H5.12558V19.9M20.8271 38.8V10.45M20.8271 10.45H11.995C10.6937 10.45 9.44561 9.95219 8.52542 9.06608C7.60523 8.17997 7.08827 6.97815 7.08827 5.725C7.08827 4.47185 7.60523 3.27003 8.52542 2.38392C9.44561 1.49781 10.6937 1 11.995 1C18.8644 1 20.8271 10.45 20.8271 10.45ZM20.8271 10.45H29.6592C30.9606 10.45 32.2086 9.95219 33.1288 9.06608C34.049 8.17997 34.566 6.97815 34.566 5.725C34.566 4.47185 34.049 3.27003 33.1288 2.38392C32.2086 1.49781 30.9606 1 29.6592 1C22.7898 1 20.8271 10.45 20.8271 10.45ZM1.2002 10.45H40.454V19.9H1.2002V10.45Z" stroke-linecap="round" stroke-linejoin="round"></path></symbol><symbol id="basket" viewBox="0 0 23 20" xmlns="http://www.w3.org/2000/svg"><path d="M1 1H4.81818L7.37636 12.4771C7.46365 12.8718 7.70273 13.2263 8.05175 13.4785C8.40077 13.7308 8.83748 13.8649 9.28545 13.8571H18.5636C19.0116 13.8649 19.4483 13.7308 19.7973 13.4785C20.1464 13.2263 20.3854 12.8718 20.4727 12.4771L22 5.28571H5.77273M9.59091 18.1429C9.59091 18.6162 9.16354 19 8.63636 19C8.10918 19 7.68182 18.6162 7.68182 18.1429C7.68182 17.6695 8.10918 17.2857 8.63636 17.2857C9.16354 17.2857 9.59091 17.6695 9.59091 18.1429ZM20.0909 18.1429C20.0909 18.6162 19.6635 19 19.1364 19C18.6092 19 18.1818 18.6162 18.1818 18.1429C18.1818 17.6695 18.6092 17.2857 19.1364 17.2857C19.6635 17.2857 20.0909 17.6695 20.0909 18.1429Z"></path></symbol><symbol id="brand-3" viewBox="0 0 27 40" xmlns="http://www.w3.org/2000/svg"><path d="M7.07828 23.1474L4.93783 38.8L13.7827 33.6455L22.6275 38.8L20.487 23.1302M26.1654 13.0273C26.1654 19.6698 20.6215 25.0545 13.7827 25.0545C6.94385 25.0545 1.3999 19.6698 1.3999 13.0273C1.3999 6.38479 6.94385 1 13.7827 1C20.6215 1 26.1654 6.38479 26.1654 13.0273Z" stroke-linecap="round" stroke-linejoin="round"></path></symbol><symbol id="brands-1" viewBox="0 0 44 36" xmlns="http://www.w3.org/2000/svg"><path d="M29.4275 25.4998V0.799805H1.2002V25.4998H29.4275ZM29.4275 25.4998H42.6002V15.9998L36.9547 10.2998H29.4275V25.4998ZM14.3729 30.2498C14.3729 32.8732 12.2666 34.9998 9.66838 34.9998C7.07013 34.9998 4.96383 32.8732 4.96383 30.2498C4.96383 27.6265 7.07013 25.4998 9.66838 25.4998C12.2666 25.4998 14.3729 27.6265 14.3729 30.2498ZM38.8366 30.2498C38.8366 32.8732 36.7303 34.9998 34.132 34.9998C31.5338 34.9998 29.4275 32.8732 29.4275 30.2498C29.4275 27.6265 31.5338 25.4998 34.132 25.4998C36.7303 25.4998 38.8366 27.6265 38.8366 30.2498Z" stroke-linecap="round" stroke-linejoin="round"></path></symbol><symbol id="brands-4" viewBox="0 0 40 40" xmlns="http://www.w3.org/2000/svg"><path d="M24.2734 9.55975C23.909 9.93154 23.7048 10.4314 23.7048 10.952C23.7048 11.4726 23.909 11.9725 24.2734 12.3443L27.4557 15.5266C27.8275 15.891 28.3274 16.0952 28.848 16.0952C29.3686 16.0952 29.8685 15.891 30.2403 15.5266L37.7386 8.02825C38.7387 10.2384 39.0415 12.7008 38.6067 15.0873C38.1719 17.4739 37.02 19.6713 35.3047 21.3866C33.5893 23.102 31.392 24.2538 29.0054 24.6886C26.6188 25.1235 24.1564 24.8207 21.9463 23.8206L8.20264 37.5642C7.41139 38.3555 6.33821 38.8 5.21921 38.8C4.10021 38.8 3.02703 38.3555 2.23578 37.5642C1.44452 36.773 1 35.6998 1 34.5808C1 33.4618 1.44452 32.3886 2.23578 31.5974L15.9795 17.8537C14.9793 15.6436 14.6765 13.1812 15.1114 10.7946C15.5462 8.40803 16.698 6.21066 18.4134 4.49532C20.1287 2.77997 22.3261 1.62813 24.7127 1.19329C27.0992 0.758456 29.5616 1.06127 31.7718 2.06139L24.2734 9.55975Z" stroke-linecap="round" stroke-linejoin="round"></path></symbol><symbol id="card-heart" width="23" height="20" viewBox="0 0 23 20" fill="none" xmlns="http://www.w3.org/2000/svg"><path d="M20.3807 2.59133C19.8676 2.08683 19.2583 1.68663 18.5878 1.41358C17.9172 1.14054 17.1985 1 16.4727 1C15.7468 1 15.0281 1.14054 14.3576 1.41358C13.687 1.68663 13.0778 2.08683 12.5646 2.59133L11.4997 3.63785L10.4348 2.59133C9.39834 1.57276 7.99258 1.00053 6.52679 1.00053C5.06099 1.00053 3.65523 1.57276 2.61876 2.59133C1.58229 3.6099 1 4.99139 1 6.43187C1 7.87235 1.58229 9.25383 2.61876 10.2724L11.4997 19L20.3807 10.2724C20.8941 9.76814 21.3013 9.16942 21.5791 8.51045C21.857 7.85148 22 7.14517 22 6.43187C22 5.71857 21.857 5.01225 21.5791 4.35328C21.3013 3.69431 20.8941 3.09559 20.3807 2.59133Z" stroke="#787878" stroke-width="2" stroke-linecap="round" stroke-linejoin="round"></path></symbol><symbol id="close" viewBox="0 0 20 20" xmlns="http://www.w3.org/2000/svg"><path d="M1.57526 0.619141L19 18.6191M18.4247 0.619141L1 18.6191"></path></symbol><symbol id="brands-5" viewBox="0 0 47 40" xmlns="http://www.w3.org/2000/svg"><path d="M31.7421 38.8V34.6C31.7421 32.3722 30.8672 30.2356 29.3098 28.6603C27.7524 27.085 25.6401 26.2 23.4376 26.2H8.90464C6.70214 26.2 4.58985 27.085 3.03244 28.6603C1.47504 30.2356 0.600098 32.3722 0.600098 34.6V38.8M33.8183 17.8L37.9706 22L46.2751 13.6M24.4757 9.4C24.4757 14.0392 20.7576 17.8 16.1711 17.8C11.5846 17.8 7.86658 14.0392 7.86658 9.4C7.86658 4.76081 11.5846 1 16.1711 1C20.7576 1 24.4757 4.76081 24.4757 9.4Z" stroke-linecap="round" stroke-linejoin="round"></path></symbol><symbol id="compare" viewBox="0 0 14 21" xmlns="http://www.w3.org/2000/svg"><path d="M14 21V14H11.6667V21H14ZM0 21H2.33333L2.33333 0H0L0 21ZM8.16667 21V7H5.83333L5.83333 21H8.16667Z"></path></symbol><symbol id="favorite" viewBox="0 0 23 20" xmlns="http://www.w3.org/2000/svg"><path d="M20.3807 2.59133C19.8676 2.08683 19.2583 1.68663 18.5878 1.41358C17.9172 1.14054 17.1985 1 16.4727 1C15.7468 1 15.0281 1.14054 14.3576 1.41358C13.687 1.68663 13.0778 2.08683 12.5646 2.59133L11.4997 3.63785L10.4348 2.59133C9.39834 1.57276 7.99258 1.00053 6.52679 1.00053C5.06099 1.00053 3.65523 1.57276 2.61876 2.59133C1.58229 3.6099 1 4.99139 1 6.43187C1 7.87235 1.58229 9.25383 2.61876 10.2724L11.4997 19L20.3807 10.2724C20.8941 9.76814 21.3013 9.16942 21.5791 8.51045C21.857 7.85148 22 7.14517 22 6.43187C22 5.71857 21.857 5.01225 21.5791 4.35328C21.3013 3.69431 20.8941 3.09559 20.3807 2.59133Z"></path></symbol><symbol id="fixed-1" viewBox="0 0 13 14" xmlns="http://www.w3.org/2000/svg"><path d="M4.6 13V7H8.2V13M1 5.2L6.4 1L11.8 5.2V11.8C11.8 12.1183 11.6736 12.4235 11.4485 12.6485C11.2235 12.8736 10.9183 13 10.6 13H2.2C1.88174 13 1.57652 12.8736 1.35147 12.6485C1.12643 12.4235 1 12.1183 1 11.8V5.2Z"></path></symbol><symbol id="fixed-2" viewBox="0 0 14 14" xmlns="http://www.w3.org/2000/svg"><path d="M1 10L7 13L13 10M1 7L7 10L13 7M7 1L1 4L7 7L13 4L7 1Z"></path></symbol><symbol id="fixed-4" viewBox="0 0 15 14" xmlns="http://www.w3.org/2000/svg"><path d="M1 1H3.28571L4.81714 8.65143C4.8694 8.91451 5.01252 9.15083 5.22145 9.31903C5.43039 9.48722 5.69183 9.57657 5.96 9.57143H11.5143C11.7825 9.57657 12.0439 9.48722 12.2528 9.31903C12.4618 9.15083 12.6049 8.91451 12.6571 8.65143L13.5714 3.85714H3.85714M6.14286 12.4286C6.14286 12.7442 5.88702 13 5.57143 13C5.25584 13 5 12.7442 5 12.4286C5 12.113 5.25584 11.8571 5.57143 11.8571C5.88702 11.8571 6.14286 12.113 6.14286 12.4286ZM12.4286 12.4286C12.4286 12.7442 12.1727 13 11.8571 13C11.5416 13 11.2857 12.7442 11.2857 12.4286C11.2857 12.113 11.5416 11.8571 11.8571 11.8571C12.1727 11.8571 12.4286 12.113 12.4286 12.4286Z"></path></symbol><symbol id="fixed-5" viewBox="0 0 13 14" xmlns="http://www.w3.org/2000/svg"><path d="M11.6667 13V11.6667C11.6667 10.9594 11.3857 10.2811 10.8856 9.78105C10.3855 9.28095 9.70724 9 9 9H3.66667C2.95942 9 2.28115 9.28095 1.78105 9.78105C1.28095 10.2811 1 10.9594 1 11.6667V13M9 3.66667C9 5.13943 7.80609 6.33333 6.33333 6.33333C4.86057 6.33333 3.66667 5.13943 3.66667 3.66667C3.66667 2.19391 4.86057 1 6.33333 1C7.80609 1 9 2.19391 9 3.66667Z"></path></symbol><symbol id="korzina" viewBox="0 0 16 18" xmlns="http://www.w3.org/2000/svg"><path d="M1 4.2H2.6M2.6 4.2H15.4M2.6 4.2V15.4C2.6 15.8243 2.76857 16.2313 3.06863 16.5314C3.36869 16.8314 3.77565 17 4.2 17H12.2C12.6243 17 13.0313 16.8314 13.3314 16.5314C13.6314 16.2313 13.8 15.8243 13.8 15.4V4.2H2.6ZM5 4.2V2.6C5 2.17565 5.16857 1.76869 5.46863 1.46863C5.76869 1.16857 6.17565 1 6.6 1H9.8C10.2243 1 10.6313 1.16857 10.9314 1.46863C11.2314 1.76869 11.4 2.17565 11.4 2.6V4.2M6.6 8.2V13M9.8 8.2V13" stroke-linecap="round" stroke-linejoin="round"></path></symbol><symbol id="mail" viewBox="0 0 25 20" xmlns="http://www.w3.org/2000/svg"><path d="M0.0850001 1.8525L11.1787 12.9475C11.5069 13.2759 11.9453 13.4709 12.409 13.4947C12.8727 13.5185 13.3287 13.3694 13.6888 13.0763L13.8312 12.9475L24.9175 1.86C24.9538 1.9975 24.9775 2.1375 24.99 2.28125L25 2.5V17.5C25.0002 18.1307 24.762 18.7382 24.3331 19.2007C23.9043 19.6632 23.3164 19.9464 22.6875 19.9937L22.5 20H2.5C1.86928 20.0002 1.26179 19.762 0.799315 19.3331C0.336838 18.9043 0.0535541 18.3164 0.00625014 17.6875L0 17.5V2.5C0 2.35 0.0125 2.205 0.0375 2.0625L0.0850001 1.8525ZM22.5 0C22.6512 0 22.8 0.0125002 22.9437 0.0387502L23.1562 0.0875002L12.5062 10.7375L1.8525 0.0849998C1.99 0.0474998 2.1325 0.0224999 2.2775 0.00999987L2.5 0H22.5Z"></path></symbol><symbol id="phone" viewBox="0 0 25 25" xmlns="http://www.w3.org/2000/svg"><path d="M23.6111 12.5C23.2407 12.5 22.9111 12.3667 22.6222 12.1C22.3324 11.8343 22.1644 11.5046 22.1181 11.1111C21.8171 8.95833 20.9088 7.12361 19.3931 5.60694C17.8764 4.0912 16.0417 3.18287 13.8889 2.88194C13.4954 2.83565 13.1657 2.67361 12.9 2.39583C12.6333 2.11806 12.5 1.78241 12.5 1.38889C12.5 0.99537 12.6389 0.665278 12.9167 0.398611C13.1944 0.13287 13.5185 0.0231481 13.8889 0.0694444C16.8056 0.393518 19.294 1.58565 21.3542 3.64583C23.4144 5.70602 24.6065 8.19444 24.9306 11.1111C24.9769 11.4815 24.8667 11.8056 24.6 12.0833C24.3343 12.3611 24.0046 12.5 23.6111 12.5ZM17.8125 12.5C17.5116 12.5 17.2454 12.3958 17.0139 12.1875C16.7824 11.9792 16.6088 11.7014 16.4931 11.3542C16.3079 10.6829 15.9551 10.0866 15.4347 9.56528C14.9134 9.04491 14.3171 8.69213 13.6458 8.50694C13.2986 8.3912 13.0208 8.21759 12.8125 7.98611C12.6042 7.75463 12.5 7.47685 12.5 7.15278C12.5 6.68981 12.662 6.31343 12.9861 6.02361C13.3102 5.73472 13.669 5.63657 14.0625 5.72917C15.3588 6.03009 16.4759 6.64907 17.4139 7.58611C18.3509 8.52407 18.9699 9.6412 19.2708 10.9375C19.3634 11.331 19.2593 11.6898 18.9583 12.0139C18.6574 12.338 18.2755 12.5 17.8125 12.5ZM23.5417 25C20.5556 25 17.6449 24.3343 14.8097 23.0028C11.9736 21.6722 9.46204 19.913 7.275 17.725C5.08704 15.538 3.32778 13.0264 1.99722 10.1903C0.665741 7.35509 0 4.44444 0 1.45833C0 1.04167 0.138889 0.694444 0.416667 0.416667C0.694444 0.138889 1.04167 0 1.45833 0H7.08333C7.40741 0 7.69676 0.104167 7.95139 0.3125C8.20602 0.520833 8.35648 0.787037 8.40278 1.11111L9.30556 5.97222C9.35185 6.2963 9.3463 6.5912 9.28889 6.85694C9.23055 7.12361 9.09722 7.36111 8.88889 7.56944L5.55556 10.9722C6.52778 12.6389 7.74306 14.2014 9.20139 15.6597C10.6597 17.1181 12.2685 18.3796 14.0278 19.4444L17.2917 16.1806C17.5 15.9722 17.7722 15.8157 18.1083 15.7111C18.4435 15.6074 18.7731 15.5787 19.0972 15.625L23.8889 16.5972C24.213 16.6667 24.4792 16.8227 24.6875 17.0653C24.8958 17.3088 25 17.5926 25 17.9167V23.5417C25 23.9583 24.8611 24.3056 24.5833 24.5833C24.3056 24.8611 23.9583 25 23.5417 25Z"></path></symbol><symbol id="save" viewBox="0 0 18 18" xmlns="http://www.w3.org/2000/svg"><path d="M17 11.6667V15.2222C17 15.6937 16.8127 16.1459 16.4793 16.4793C16.1459 16.8127 15.6937 17 15.2222 17H2.77778C2.30628 17 1.8541 16.8127 1.5207 16.4793C1.1873 16.1459 1 15.6937 1 15.2222V11.6667M4.55556 7.22222L9 11.6667M9 11.6667L13.4444 7.22222M9 11.6667V1" stroke-linecap="round" stroke-linejoin="round"></path></symbol><symbol id="rub" viewBox="0 0 9 12" xmlns="http://www.w3.org/2000/svg"><path d="M1.46218 12V0H4.62185C6.08964 0 7.17647 0.296919 7.88235 0.890757C8.59944 1.48459 8.95798 2.34734 8.95798 3.47899C8.95798 4.2409 8.78432 4.89636 8.43698 5.44538C8.08964 5.98319 7.57423 6.39776 6.89076 6.68908C6.21849 6.98039 5.38375 7.12605 4.38656 7.12605H2.97479V12H1.46218ZM0 9.71429V8.62185H5.7479V9.71429H0ZM0 7.12605V5.84874H3.84874V7.12605H0ZM4.16807 5.84874C4.85154 5.84874 5.42857 5.77591 5.89916 5.63025C6.38095 5.48459 6.7507 5.2437 7.0084 4.90756C7.26611 4.57143 7.39496 4.11205 7.39496 3.52941C7.39496 2.76751 7.15966 2.20168 6.68908 1.83193C6.21849 1.46219 5.48459 1.27731 4.4874 1.27731H2.97479V5.84874H4.16807Z"></path></symbol><symbol id="telega" viewBox="0 0 13 11" xmlns="http://www.w3.org/2000/svg"><path d="M11.9347 0.091968C11.9347 0.091968 13.091 -0.358918 12.9943 0.736006C12.9624 1.18689 12.6734 2.76514 12.4484 4.47196L11.6776 9.52844C11.6776 9.52844 11.6133 10.2692 11.0351 10.3981C10.4571 10.5266 9.58984 9.94718 9.42913 9.81832C9.30056 9.72159 7.02023 8.27221 6.21727 7.56389C5.99227 7.37044 5.73513 6.98413 6.24941 6.53325L9.62168 3.31246C10.0071 2.92615 10.3925 2.02438 8.78658 3.11931L4.28962 6.17879C4.28962 6.17879 3.77564 6.5011 2.81226 6.21123L0.724191 5.56689C0.724191 5.56689 -0.0466308 5.08386 1.27031 4.60083C4.48247 3.08716 8.43331 1.54135 11.9341 0.091968H11.9347Z"></path></symbol><symbol id="star" viewBox="0 0 29 28" xmlns="http://www.w3.org/2000/svg"><path d="M14.8462 0L19.1722 9.21556L28.8462 10.7024L21.8462 17.8717L23.4982 28L14.8462 23.2156L6.19419 28L7.84619 17.8717L0.846191 10.7024L10.5202 9.21556L14.8462 0Z"></path></symbol><symbol id="viber" viewBox="0 0 14 14" xmlns="http://www.w3.org/2000/svg"><path d="M11.375 2.56878C10.802 1.98999 10.1195 1.53108 9.36725 1.21882C8.61504 0.906558 7.80818 0.7472 6.99373 0.750037C3.58124 0.750037 0.8 3.53128 0.8 6.94377C0.8 8.03752 1.0875 9.10001 1.625 10.0375L0.75 13.25L4.03124 12.3875C4.93749 12.8813 5.95623 13.1438 6.99373 13.1438C10.4062 13.1438 13.1875 10.3625 13.1875 6.95002C13.1875 5.29377 12.5437 3.73753 11.375 2.56878ZM6.99373 12.0938C6.06873 12.0938 5.16249 11.8438 4.36874 11.375L4.18124 11.2625L2.23125 11.775L2.74999 9.87501L2.62499 9.68126C2.11109 8.86062 1.83821 7.91204 1.8375 6.94377C1.8375 4.10628 4.14999 1.79378 6.98748 1.79378C8.36248 1.79378 9.65622 2.33128 10.625 3.30628C11.1046 3.78376 11.4848 4.35169 11.7433 4.97717C12.0019 5.60264 12.1337 6.27321 12.1312 6.95002C12.1437 9.78751 9.83122 12.0938 6.99373 12.0938ZM9.81872 8.24376C9.66247 8.16877 8.89998 7.79377 8.76248 7.73752C8.61873 7.68752 8.51873 7.66252 8.41248 7.81252C8.30623 7.96877 8.01248 8.31876 7.92498 8.41876C7.83748 8.52501 7.74373 8.53751 7.58748 8.45626C7.43123 8.38126 6.93123 8.21251 6.34373 7.68752C5.88123 7.27502 5.57499 6.76877 5.48124 6.61252C5.39374 6.45627 5.46874 6.37502 5.54999 6.29377C5.61874 6.22502 5.70624 6.11252 5.78124 6.02502C5.85624 5.93752 5.88749 5.86877 5.93748 5.76877C5.98748 5.66252 5.96248 5.57502 5.92498 5.50002C5.88748 5.42502 5.57499 4.66253 5.44999 4.35003C5.32499 4.05003 5.19374 4.08753 5.09999 4.08128H4.79999C4.69374 4.08128 4.53124 4.11878 4.38749 4.27503C4.24999 4.43128 3.84999 4.80628 3.84999 5.56877C3.84999 6.33127 4.40624 7.06877 4.48124 7.16877C4.55624 7.27502 5.57499 8.83751 7.12498 9.50626C7.49373 9.66876 7.78123 9.76251 8.00623 9.83126C8.37498 9.95001 8.71248 9.93126 8.98123 9.89376C9.28123 9.85001 9.89997 9.51876 10.025 9.15626C10.1562 8.79376 10.1562 8.48751 10.1125 8.41876C10.0687 8.35001 9.97497 8.31876 9.81872 8.24376Z"></path></symbol><symbol id="true" viewBox="0 0 18 17" xmlns="http://www.w3.org/2000/svg"><path d="M6 7.66667L8.5 10.1667L16.8333 1.83333M16 8.5V14.3333C16 14.7754 15.8244 15.1993 15.5118 15.5118C15.1993 15.8244 14.7754 16 14.3333 16H2.66667C2.22464 16 1.80072 15.8244 1.48816 15.5118C1.17559 15.1993 1 14.7754 1 14.3333V2.66667C1 2.22464 1.17559 1.80072 1.48816 1.48816C1.80072 1.17559 2.22464 1 2.66667 1H11.8333" stroke-linecap="round" stroke-linejoin="round"></path></symbol><symbol id="vk" viewBox="0 0 30 18" xmlns="http://www.w3.org/2000/svg"><path fill-rule="evenodd" clip-rule="evenodd" d="M26.7031 12.0225C26.7031 12.0225 29.1286 14.418 29.7286 15.5265C29.7403 15.5425 29.7494 15.5602 29.7556 15.579C30.0001 15.9885 30.0601 16.3095 29.9401 16.5465C29.7376 16.938 29.0521 17.1345 28.8196 17.151H24.5326C24.2341 17.151 23.6131 17.073 22.8571 16.551C22.2796 16.1475 21.7051 15.483 21.1486 14.8335C20.3176 13.869 19.5991 13.032 18.8716 13.032C18.7798 13.0318 18.6885 13.047 18.6016 13.077C18.0511 13.251 17.3521 14.0355 17.3521 16.125C17.3521 16.779 16.8361 17.151 16.4746 17.151H14.5111C13.8421 17.151 10.3591 16.917 7.27064 13.6605C3.48614 9.6735 0.0871351 1.6755 0.0541351 1.605C-0.157365 1.0875 0.286635 0.8055 0.766635 0.8055H5.09564C5.67614 0.8055 5.86514 1.1565 5.99714 1.4715C6.15014 1.833 6.71714 3.279 7.64714 4.9035C9.15314 7.5465 10.0786 8.622 10.8181 8.622C10.9571 8.62241 11.0937 8.58619 11.2141 8.517C12.1801 7.986 12.0001 4.536 11.9551 3.825C11.9551 3.687 11.9536 2.2845 11.4586 1.6065C11.1046 1.1205 10.5016 0.9315 10.1371 0.8625C10.2346 0.7215 10.4416 0.5055 10.7071 0.378C11.3686 0.0479998 12.5641 0 13.7506 0H14.4091C15.6961 0.018 16.0291 0.1005 16.4971 0.219C17.4391 0.444 17.4571 1.0545 17.3746 3.1335C17.3506 3.7275 17.3251 4.3965 17.3251 5.184C17.3251 5.352 17.3176 5.5395 17.3176 5.73C17.2891 6.7965 17.2516 7.998 18.0046 8.4915C18.1023 8.55234 18.2151 8.58456 18.3301 8.5845C18.5911 8.5845 19.3726 8.5845 21.4921 4.947C22.4221 3.3405 23.1421 1.446 23.1916 1.3035C23.2336 1.224 23.3596 1.0005 23.5126 0.9105C23.6215 0.852593 23.7434 0.823666 23.8666 0.8265H28.9591C29.5141 0.8265 29.8906 0.9105 29.9641 1.1205C30.0871 1.461 29.9401 2.5005 27.6151 5.6445C27.2236 6.168 26.8801 6.621 26.5786 7.017C24.4711 9.783 24.4711 9.9225 26.7031 12.0225Z"></path></symbol><symbol id="youtube" viewBox="0 0 25 30" xmlns="http://www.w3.org/2000/svg"><path d="M9.75 0H8.0625L6.9375 4.3125L5.8125 0H3.9375C4.3125 1.125 4.6875 2.0625 5.0625 3.1875C5.625 4.6875 6 6 6 6.75V11.25H7.6875V6.75L9.75 0ZM14.25 8.4375V5.625C14.25 4.6875 14.0625 4.125 13.6875 3.5625C13.3125 3 12.75 2.8125 12 2.8125C11.25 2.8125 10.6875 3.1875 10.3125 3.75C9.9375 4.125 9.75 4.6875 9.75 5.625V8.625C9.75 9.5625 9.9375 10.125 10.3125 10.5C10.6875 11.0625 11.25 11.25 12 11.25C12.75 11.25 13.3125 10.875 13.6875 10.3125C14.0625 10.125 14.25 9.375 14.25 8.4375ZM12.75 8.8125C12.75 9.5625 12.5625 9.9375 12 9.9375C11.4375 9.9375 11.25 9.5625 11.25 8.8125V5.25C11.25 4.5 11.4375 4.125 12 4.125C12.5625 4.125 12.75 4.5 12.75 5.25V8.8125ZM19.875 11.25V2.8125H18.375V9.1875C18 9.75 17.8125 9.9375 17.4375 9.9375C17.25 9.9375 17.0625 9.75 17.0625 9.5625V2.8125H15.5625V9.375C15.5625 9.9375 15.5625 10.3125 15.75 10.6875C15.75 11.0625 16.125 11.25 16.6875 11.25C17.25 11.25 17.8125 10.875 18.375 10.3125V11.25H19.875ZM20.625 19.6875C20.0625 19.6875 19.875 20.0625 19.875 20.8125V21.5625H21.375V20.8125C21.375 20.0625 21.1875 19.6875 20.625 19.6875ZM15.1875 19.6875C15 19.6875 14.625 19.875 14.4375 20.0625V25.125C14.625 25.3125 15 25.5 15.1875 25.5C15.5625 25.5 15.75 25.125 15.75 24.375V20.8125C15.75 20.0625 15.5625 19.6875 15.1875 19.6875Z"></path><path d="M24.375 15.5625C24 14.25 22.875 13.125 21.75 13.125C18.75 12.75 15.5625 12.75 12.375 12.75C9.1875 12.75 6.1875 12.75 3 13.125C1.875 13.125 0.75 14.25 0.375 15.5625C8.9407e-08 17.4375 0 19.5 0 21.375C0 23.25 8.9407e-08 25.3125 0.375 27.1875C0.75 28.5 1.6875 29.4375 3 29.625C6.1875 30 9.1875 30 12.375 30C15.5625 30 18.5625 30 21.75 29.625C23.0625 29.4375 24.1875 28.5 24.375 27.1875C24.75 25.3125 24.75 23.25 24.75 21.375C24.75 19.5 24.75 17.4375 24.375 15.5625ZM7.125 17.25H5.25V26.8125H3.5625V17.25H1.875V15.5625H7.125V17.25ZM11.625 26.8125H10.125V25.875C9.5625 26.625 9 26.8125 8.4375 26.8125C7.875 26.8125 7.6875 26.625 7.5 26.25C7.5 26.0625 7.3125 25.6875 7.3125 24.9375V18.375H8.8125V24.9375C8.8125 25.125 9 25.3125 9.1875 25.3125C9.5625 25.3125 9.75 25.125 10.125 24.5625V18.375H11.625V26.8125ZM17.25 24.1875C17.25 24.9375 17.25 25.5 17.0625 25.875C16.875 26.4375 16.5 26.8125 15.9375 26.8125C15.375 26.8125 14.8125 26.4375 14.4375 25.875V26.625H12.9375V15.5625H14.4375V19.125C15 18.5625 15.375 18.1875 15.9375 18.1875C16.5 18.1875 16.875 18.5625 17.0625 19.125C17.25 19.5 17.25 20.0625 17.25 20.8125V24.1875ZM22.875 22.875H19.875V24.375C19.875 25.125 20.0625 25.5 20.625 25.5C21 25.5 21.1875 25.3125 21.375 24.9375V24H22.875V25.125C22.875 25.5 22.6875 25.6875 22.5 26.0625C22.125 26.625 21.5625 27 20.625 27C19.875 27 19.3125 26.625 18.75 26.0625C18.375 25.6875 18.1875 24.9375 18.1875 24.1875V21.375C18.1875 20.4375 18.375 19.875 18.5625 19.5C18.9375 18.9375 19.5 18.5625 20.4375 18.5625C21.1875 18.5625 21.75 18.9375 22.125 19.5C22.5 19.875 22.5 20.625 22.5 21.375V22.875H22.875Z"></path></symbol></svg>