<svg width="30" height="30" viewBox="0 0 30 30" fill="none" xmlns="http://www.w3.org/2000/svg">
<path d="M29.9053 13.3339C29.858 12.9122 29.3661 12.595 28.9409 12.595C27.5664 12.595 26.3466 11.7883 25.835 10.5397C25.3128 9.26108 25.6498 7.77025 26.6738 6.8308C26.9963 6.53591 27.0356 6.04212 26.7653 5.69935C26.0616 4.80596 25.2621 3.99885 24.389 3.29943C24.0474 3.02542 23.5454 3.06356 23.2489 3.39167C22.3549 4.38184 20.7489 4.74979 19.5078 4.232C18.2167 3.68878 17.4018 2.3801 17.4819 0.975411C17.5082 0.533908 17.1854 0.150269 16.7455 0.099022C15.6249 -0.0307173 14.4945 -0.0344797 13.3707 0.0901997C12.9364 0.138203 12.6138 0.512761 12.6282 0.948685C12.6769 2.33962 11.8528 3.62521 10.5742 4.14896C9.34803 4.64989 7.75314 4.28467 6.86093 3.30319C6.56603 2.97988 6.07289 2.94018 5.72895 3.20835C4.83012 3.91375 4.01263 4.72137 3.30244 5.60749C3.0257 5.95195 3.06657 6.45119 3.39183 6.74712C4.4361 7.69279 4.77277 9.19647 4.23059 10.49C3.71293 11.7231 2.43254 12.5175 0.966871 12.5175C0.491247 12.5022 0.152757 12.8218 0.100213 13.2543C-0.031602 14.3809 -0.0330291 15.5293 0.0938559 16.665C0.141211 17.0885 0.647583 17.403 1.07754 17.403C2.38401 17.3698 3.63755 18.1781 4.16417 19.4582C4.68818 20.7368 4.35086 22.227 3.32514 23.1677C3.0043 23.4626 2.9633 23.9552 3.23419 24.2976C3.93076 25.1854 4.731 25.993 5.60674 26.6984C5.95055 26.9753 6.45056 26.9365 6.74857 26.608C7.64611 25.6155 9.25189 25.2482 10.4879 25.767C11.7827 26.3088 12.5972 27.6174 12.5177 29.0224C12.4916 29.4639 12.8152 29.8488 13.2536 29.8988C13.827 29.9659 14.4034 29.9991 14.9817 29.9991C15.5305 29.9991 16.0794 29.9692 16.6283 29.908C17.0632 29.86 17.3852 29.4851 17.3706 29.049C17.3204 27.6588 18.1463 26.373 19.4233 25.8503C20.6577 25.3462 22.2454 25.7151 23.1381 26.6952C23.4346 27.0178 23.9248 27.057 24.2701 26.7899C25.1674 26.0863 25.9833 25.2791 26.6966 24.3906C26.9736 24.0468 26.9343 23.5469 26.6072 23.2505C25.5632 22.3055 25.2247 20.8011 25.7669 19.5089C26.2765 18.2924 27.5093 17.4755 28.8353 17.4755L29.0208 17.4805C29.4513 17.5154 29.8468 17.1839 29.8989 16.7447C30.0313 15.6171 30.0327 14.47 29.9053 13.3339ZM14.9997 23.6468C10.2236 23.6468 6.35209 19.7753 6.35209 14.9993C6.35209 10.2234 10.2238 6.35181 14.9997 6.35181C19.7757 6.35181 23.6474 10.2234 23.6474 14.9993C23.6474 16.6204 23.2004 18.1367 22.4242 19.4333L18.6376 15.6466C18.9118 15.0002 19.0565 14.2995 19.0564 13.5763C19.0564 12.1602 18.5049 10.829 17.5034 9.82778C16.5022 8.82658 15.171 8.27519 13.7551 8.27519C13.2826 8.27519 12.8123 8.33798 12.3573 8.46189C12.158 8.51625 11.9951 8.6805 11.942 8.88017C11.8878 9.08438 11.9489 9.29364 12.1085 9.45335C12.1085 9.45335 13.9779 11.3372 14.6034 11.9625C14.6689 12.028 14.6688 12.1844 14.6596 12.2407L14.6537 12.2818C14.5907 12.9694 14.4691 13.7948 14.3688 14.112C14.3553 14.1254 14.3426 14.1367 14.3288 14.1504C14.3144 14.1648 14.3012 14.1787 14.2873 14.193C13.966 14.2961 13.1279 14.4191 12.4293 14.4817L12.4295 14.4779L12.3981 14.4858C12.3925 14.4865 12.3821 14.4872 12.3684 14.4872C12.2928 14.4872 12.1818 14.4661 12.0809 14.3653C11.4298 13.7143 9.63371 11.931 9.63371 11.931C9.47258 11.7704 9.30729 11.7366 9.19714 11.7366C8.94039 11.7366 8.71049 11.9222 8.63809 12.1883C8.14366 14.018 8.6678 15.9861 10.0063 17.3248C11.0078 18.3261 12.3392 18.8775 13.7553 18.8775C14.4784 18.8775 15.1792 18.7328 15.8254 18.4587L19.6531 22.2864C18.3092 23.1463 16.7135 23.6468 14.9997 23.6468Z" fill="url(#paint0_linear_2921_3028)"/>
<defs>
<linearGradient id="paint0_linear_2921_3028" x1="14.9998" y1="-0.000854492" x2="14.9998" y2="29.9991" gradientUnits="userSpaceOnUse">
<stop offset="0.304973" stop-color="#96A7FF" stop-opacity="0.93"/>
<stop offset="0.638312" stop-color="#705CE6"/>
<stop offset="1" stop-color="#240DB3"/>
</linearGradient>
</defs>
</svg>
