<svg width="177" height="79" viewBox="0 0 177 79" fill="none" xmlns="http://www.w3.org/2000/svg">
<path d="M23.7527 40.6372L17.9411 55.4849C17.8382 55.7476 17.5693 55.9223 17.268 55.9223H15.5215C15.2054 55.9223 14.9262 55.7297 14.8355 55.4487L11.8816 46.2893L8.94329 55.4479C8.85322 55.7294 8.57383 55.9223 8.25699 55.9223H6.49615C6.19414 55.9223 5.92464 55.7473 5.82244 55.4839L0.0424327 40.6359C-0.0366104 40.4326 -0.00401016 40.206 0.130094 40.029C0.264166 39.8519 0.482827 39.7463 0.716313 39.7463H3.61715C3.92635 39.7463 4.20077 39.9302 4.29777 40.2026L7.38007 48.8704L9.85696 40.2396C9.94047 39.9489 10.2247 39.7463 10.5489 39.7463H13.267C13.5913 39.7463 13.8751 39.9484 13.9586 40.239L16.4484 48.8704L19.4991 40.2044C19.5952 39.9314 19.8702 39.7463 20.1802 39.7463H23.0791C23.3126 39.7463 23.5319 39.8519 23.6657 40.0296C23.7999 40.2068 23.8324 40.4336 23.7527 40.6372ZM98.9689 39.5916C98.8695 39.5268 98.7426 39.5117 98.6293 39.5498L92.901 41.4776V40.5575C92.901 40.1098 92.5096 39.7463 92.0264 39.7463H89.6412C89.1581 39.7463 88.7665 40.1098 88.7665 40.5575V55.1115C88.7665 55.5592 89.1581 55.9223 89.6412 55.9223H92.0264C92.5096 55.9223 92.901 55.5592 92.901 55.1115V45.0465L98.4727 43.4915C98.8609 43.3828 99.1269 43.051 99.1269 42.6748V39.8734C99.1269 39.7608 99.0678 39.6558 98.9689 39.5916ZM86.9882 47.7215C86.9882 48.0826 86.9442 48.4439 86.8899 48.8044C86.8302 49.2036 86.4718 49.4993 86.0503 49.4993H74.0848C74.6761 51.306 76.4161 52.4923 78.3953 52.4923C79.6447 52.4923 80.8214 52.1592 81.7927 51.3759C82.1076 51.1219 82.566 51.1199 82.883 51.3723L84.462 52.6313C84.6488 52.7799 84.7593 52.9989 84.7661 53.2304C84.7734 53.4627 84.676 53.6865 84.4991 53.8457C82.9477 55.2417 80.7591 56.1609 78.5428 56.1609C73.7882 56.1609 69.9203 52.4923 69.9203 47.9474C69.9203 43.3192 73.6994 39.508 78.6032 39.508C83.2683 39.508 86.9882 43.3481 86.9882 47.7215ZM83.0303 46.1699C82.3824 44.3063 80.5821 43.1787 78.5714 43.1787C76.6236 43.1787 74.6156 44.3647 74.0257 46.1699H83.0303ZM49.5955 46.018C48.7706 45.7925 47.2701 45.5357 47.3018 44.4858C47.2701 43.6333 48.0047 43.1524 48.8929 43.1524C49.4423 43.1524 49.9459 43.3591 50.2303 43.7511C50.4444 44.046 50.8406 44.1772 51.208 44.0743L53.3976 43.4632C53.6441 43.3946 53.8452 43.2292 53.9477 43.0103C54.0505 42.7915 54.0438 42.5423 53.9305 42.3283C53.0328 40.6309 51.0366 39.4653 48.9519 39.4653C45.9541 39.4653 43.2307 41.3926 43.2307 44.3174C43.2307 45.6494 43.7809 46.7544 44.8834 47.6064C45.9233 48.4011 46.6888 48.6003 47.9432 48.9687C49.0136 49.3094 50.8186 49.7057 50.8186 51.0124C50.8186 52.0042 49.9023 52.5162 48.9212 52.5162C48.0036 52.5162 47.3586 52.0622 47.0121 51.4009C46.8248 51.0432 46.3869 50.865 45.9758 50.979L43.5975 51.6361C43.3649 51.7001 43.1713 51.8511 43.0637 52.053C42.9555 52.2541 42.9433 52.4881 43.0286 52.6992C43.8966 54.8448 46.0613 56.2038 48.7706 56.2038C50.3301 56.2038 52.0447 55.5236 53.1767 54.5579C54.3081 53.5363 54.8903 52.26 54.8903 50.7844C54.8903 47.6349 52.3186 46.7853 49.5955 46.018ZM63.1435 46.0183C62.3182 45.7924 60.8183 45.5357 60.85 44.486C60.8183 43.6333 61.5529 43.1523 62.4414 43.1523C62.9908 43.1523 63.4941 43.3593 63.7784 43.751C63.9927 44.0466 64.3891 44.1773 64.7568 44.0743L66.9461 43.4631C67.1923 43.3945 67.3937 43.2286 67.4963 43.0103C67.5989 42.7914 67.5926 42.5423 67.4792 42.3281C66.581 40.6309 64.585 39.4647 62.5 39.4647C59.5022 39.4647 56.7791 41.3931 56.7791 44.3173C56.7791 45.6493 57.329 46.7548 58.4316 47.6064C59.4707 48.4014 60.2378 48.5998 61.4907 48.9692C62.562 49.3093 64.3666 49.7056 64.3666 51.0123C64.3666 52.0041 63.4503 52.5162 62.4701 52.5162C61.5519 52.5162 60.9069 52.0627 60.5602 51.4008C60.3723 51.0431 59.9347 50.8655 59.5236 50.979L57.1457 51.6369C56.9131 51.7008 56.7196 51.8519 56.612 52.0535C56.5039 52.255 56.4916 52.4889 56.5768 52.7C57.4449 54.8448 59.6091 56.2039 62.3182 56.2039C63.8776 56.2039 65.5927 55.5241 66.7251 54.5578C67.8559 53.5362 68.4392 52.2599 68.4392 50.7847C68.4392 47.6349 65.8672 46.7858 63.1435 46.0183ZM40.7284 40.4319V55.2371C40.7284 55.6153 40.4192 55.9222 40.0381 55.9222H37.5373C37.1559 55.9222 36.8467 55.6153 36.8467 55.2371V54.6479C35.4868 55.5971 33.8308 56.1609 32.0451 56.1609C27.4223 56.1609 23.66 52.4267 23.66 47.835C23.66 43.2438 27.4223 39.5079 32.0451 39.5079C33.8308 39.5079 35.4868 40.0701 36.8467 41.0213V40.4319C36.8467 40.053 37.1559 39.7463 37.5373 39.7463H40.0381C40.4192 39.7463 40.7284 40.053 40.7284 40.4319ZM37.1487 47.8334C37.1487 45.2781 35.0005 43.0012 32.3475 43.0012C30.0082 43.0012 27.5439 44.7521 27.5439 47.8334C27.5439 50.6828 29.9092 52.6443 32.3475 52.6443C35.0005 52.6443 37.1487 50.39 37.1487 47.8334Z" fill="#032C7F"/>
<path d="M144.36 47.8334C144.36 50.3899 142.211 52.6444 139.559 52.6444C137.12 52.6444 134.755 50.6832 134.755 47.8334C134.755 44.7521 137.219 43.0012 139.559 43.0012C142.211 43.0012 144.36 45.278 144.36 47.8334ZM175.695 -2.28882e-05V33.1963V60.7191C175.695 61.9781 174.704 63.0387 173.56 63.6525C169.645 65.7497 164.679 66.5448 161.809 66.5448C147.61 66.5448 141.969 62.0618 126.352 62.0618C113.283 62.0618 105.156 65.462 103.102 65.7545C102.37 65.8583 100.908 65.8834 100.908 64.0715V33.1963V-2.28882e-05H175.695ZM166.976 33.1963H162.825V48.7882C162.825 54.7431 167.799 56.3167 170.43 56.3167H170.631C171.029 56.3167 171.352 56.0184 171.353 55.6496L171.36 53.1399C171.362 52.7721 171.042 52.4731 170.646 52.4689L170.448 52.4669C169.868 52.4604 166.976 52.255 166.976 48.7881V43.5441H170.61C171.008 43.5441 171.331 43.2448 171.331 42.8754V40.4151C171.331 40.0459 171.008 39.7462 170.61 39.7462H166.976V33.1962V33.1963ZM160.023 33.1963H156.203C153.868 34.0541 151.496 36.0743 151.496 40.186V55.2537C151.496 55.6229 151.819 55.9223 152.217 55.9223H154.926C155.325 55.9223 155.648 55.6229 155.648 55.2537V43.4974H159.257C159.655 43.4974 159.978 43.1977 159.978 42.8285V40.4152C159.978 40.0459 159.655 39.7463 159.257 39.7463H155.671C155.909 36.7105 158.565 36.5153 159.118 36.5094L159.319 36.507C159.715 36.5028 160.034 36.2034 160.032 35.8361L160.023 33.1963V33.1963ZM107.573 33.1963H103.438V55.2537C103.438 55.6229 103.761 55.9223 104.159 55.9223H106.852C107.25 55.9223 107.573 55.6229 107.573 55.2537V50.3502L112.506 55.5216C112.751 55.7788 113.104 55.9247 113.474 55.9223L117.467 55.8955C117.637 55.8941 117.791 55.8001 117.859 55.6552C117.927 55.5102 117.897 55.3412 117.782 55.225L109.559 46.9023L116.787 40.4347C116.913 40.3211 116.953 40.148 116.887 39.9967C116.822 39.845 116.663 39.7463 116.487 39.7463H112.58C112.217 39.7463 111.868 39.8814 111.612 40.1211L107.573 43.9122V33.1963ZM130.45 39.8732C130.45 39.7607 130.391 39.6559 130.292 39.5915C130.193 39.5269 130.066 39.5116 129.952 39.5498L124.224 41.4775V40.5574C124.224 40.1098 123.832 39.7463 123.35 39.7463H120.964C120.481 39.7463 120.09 40.1098 120.09 40.5574V55.1112C120.09 55.5589 120.481 55.9223 120.964 55.9223H123.35C123.832 55.9223 124.224 55.5589 124.224 55.1112V45.0466L129.796 43.4911C130.184 43.3826 130.45 43.0509 130.45 42.6745V39.8732ZM147.939 40.4319C147.939 40.053 147.63 39.7463 147.249 39.7463H144.748C144.367 39.7463 144.058 40.053 144.058 40.4319V41.0214C142.698 40.07 141.042 39.5077 139.256 39.5077C134.633 39.5077 130.871 43.2439 130.871 47.8351C130.871 52.4266 134.633 56.1608 139.256 56.1608C141.042 56.1608 142.698 55.5969 144.058 54.648V55.237C144.058 55.6152 144.367 55.9223 144.748 55.9223H147.249C147.63 55.9223 147.939 55.6152 147.939 55.237V40.4319Z" fill="#032C7F"/>
<path d="M100.831 77.7675L101.363 77.4709C101.738 78.1128 102.172 78.4337 102.663 78.4337C102.874 78.4337 103.072 78.3878 103.257 78.2974C103.441 78.2071 103.582 78.0844 103.678 77.9321C103.776 77.7797 103.824 77.6179 103.824 77.4467C103.824 77.2525 103.753 77.0624 103.61 76.8749C103.414 76.6174 103.056 76.3059 102.534 75.9431C102.01 75.5764 101.685 75.3121 101.557 75.149C101.334 74.8752 101.224 74.5786 101.224 74.2603C101.224 74.0082 101.289 73.7776 101.42 73.57C101.551 73.3623 101.736 73.1992 101.974 73.0791C102.212 72.9591 102.47 72.8999 102.749 72.8999C103.046 72.8999 103.324 72.9672 103.581 73.1034C103.838 73.2383 104.112 73.4877 104.4 73.8505L103.888 74.2104C103.651 73.9206 103.449 73.7291 103.281 73.6374C103.114 73.5444 102.932 73.4985 102.736 73.4985C102.482 73.4985 102.274 73.57 102.112 73.7116C101.951 73.8545 101.869 74.0284 101.869 74.2374C101.869 74.3628 101.898 74.4856 101.955 74.6042C102.012 74.7229 102.117 74.851 102.268 74.9912C102.349 75.064 102.621 75.2582 103.081 75.571C103.625 75.9431 103.998 76.2736 104.2 76.5621C104.403 76.852 104.504 77.1432 104.504 77.4358C104.504 77.8565 104.331 78.2233 103.987 78.5335C103.641 78.845 103.22 79 102.726 79C102.345 79 101.999 78.9056 101.689 78.7168C101.379 78.528 101.093 78.2112 100.831 77.7675ZM110.341 74.5583V78.8544H109.748V78.1154C109.498 78.3973 109.219 78.609 108.908 78.7492C108.598 78.8894 108.258 78.9596 107.89 78.9596C107.235 78.9596 106.675 78.7398 106.212 78.3002C105.748 77.8593 105.516 77.3253 105.516 76.6942C105.516 76.078 105.751 75.5494 106.219 75.1112C106.686 74.673 107.248 74.4532 107.907 74.4532C108.287 74.4532 108.63 74.5274 108.938 74.6757C109.245 74.824 109.515 75.0478 109.748 75.3485V74.5583H110.341ZM107.954 74.9871C107.622 74.9871 107.315 75.0626 107.036 75.2137C106.755 75.3633 106.533 75.5751 106.367 75.8475C106.201 76.1198 106.118 76.4084 106.118 76.7131C106.118 77.0138 106.201 77.3024 106.369 77.5774C106.536 77.8525 106.76 78.0669 107.042 78.2193C107.324 78.373 107.626 78.4498 107.949 78.4498C108.274 78.4498 108.583 78.3743 108.874 78.2219C109.166 78.0696 109.39 77.8646 109.547 77.6044C109.704 77.3455 109.783 77.0529 109.783 76.728C109.783 76.2331 109.607 75.8192 109.254 75.4861C108.902 75.153 108.468 74.9871 107.954 74.9871ZM111.687 74.5583H112.28V75.3283C112.52 75.0343 112.784 74.8146 113.074 74.6703C113.365 74.526 113.68 74.4532 114.022 74.4532C114.37 74.4532 114.678 74.5341 114.947 74.6972C115.216 74.8604 115.415 75.0802 115.543 75.3566C115.671 75.6317 115.735 76.0618 115.735 76.6457V78.8544H115.142V76.8075C115.142 76.3139 115.118 75.9836 115.073 75.8177C115.001 75.5346 114.867 75.3215 114.671 75.1773C114.474 75.0343 114.218 74.9629 113.903 74.9629C113.541 74.9629 113.216 75.0735 112.931 75.2945C112.645 75.5144 112.456 75.7881 112.366 76.1144C112.309 76.3274 112.28 76.7158 112.28 77.2808V78.8544H111.687V74.5583ZM117.215 72.7947C117.351 72.7947 117.465 72.8391 117.561 72.9295C117.657 73.0185 117.705 73.1277 117.705 73.2531C117.705 73.3772 117.657 73.485 117.561 73.574C117.465 73.6643 117.351 73.7089 117.215 73.7089C117.082 73.7089 116.968 73.6643 116.872 73.574C116.776 73.485 116.728 73.3772 116.728 73.2531C116.728 73.1277 116.776 73.0185 116.872 72.9295C116.968 72.8391 117.082 72.7947 117.215 72.7947ZM116.92 74.5583H117.513V78.8544H116.92V74.5583ZM119.269 72.9565H119.862V74.5583H120.804V75.0356H119.862V78.8544H119.269V75.0356H118.457V74.5583H119.269V72.9565ZM126.326 74.5583V78.8544H125.732V78.1154C125.482 78.3973 125.203 78.609 124.892 78.7492C124.582 78.8894 124.242 78.9596 123.874 78.9596C123.22 78.9596 122.66 78.7398 122.196 78.3002C121.732 77.8593 121.501 77.3253 121.501 76.6942C121.501 76.078 121.735 75.5494 122.203 75.1112C122.67 74.673 123.233 74.4532 123.892 74.4532C124.271 74.4532 124.614 74.5274 124.922 74.6757C125.229 74.824 125.5 75.0478 125.732 75.3485V74.5583H126.326ZM123.938 74.9871C123.606 74.9871 123.3 75.0626 123.02 75.2137C122.74 75.3633 122.517 75.5751 122.351 75.8475C122.186 76.1198 122.103 76.4084 122.103 76.7131C122.103 77.0138 122.186 77.3024 122.353 77.5774C122.52 77.8525 122.744 78.0669 123.026 78.2193C123.308 78.373 123.611 78.4498 123.934 78.4498C124.258 78.4498 124.568 78.3743 124.859 78.2219C125.151 78.0696 125.375 77.8646 125.532 77.6044C125.689 77.3455 125.767 77.0529 125.767 76.728C125.767 76.2331 125.591 75.8192 125.238 75.4861C124.886 75.153 124.453 74.9871 123.938 74.9871ZM123.137 72.8594C123.273 72.8594 123.388 72.9039 123.486 72.9929C123.582 73.0832 123.63 73.1897 123.63 73.3164C123.63 73.4419 123.582 73.5498 123.486 73.6401C123.388 73.7291 123.273 73.7736 123.137 73.7736C123.001 73.7736 122.885 73.7291 122.788 73.6401C122.692 73.5498 122.644 73.4419 122.644 73.3164C122.644 73.1897 122.692 73.0832 122.788 72.9929C122.885 72.9039 123.001 72.8594 123.137 72.8594ZM124.873 72.8594C125.01 72.8594 125.125 72.9039 125.222 72.9929C125.318 73.0832 125.366 73.1897 125.366 73.3164C125.366 73.4419 125.318 73.5498 125.222 73.6401C125.125 73.7291 125.01 73.7736 124.873 73.7736C124.738 73.7736 124.621 73.7291 124.524 73.6401C124.428 73.5498 124.38 73.4419 124.38 73.3164C124.38 73.1897 124.428 73.0832 124.524 72.9929C124.621 72.9039 124.738 72.8594 124.873 72.8594ZM127.444 74.5583H128.055V75.1867C128.237 74.9386 128.429 74.7552 128.631 74.6339C128.833 74.5139 129.044 74.4532 129.262 74.4532C129.428 74.4532 129.604 74.5017 129.791 74.5988L129.48 75.0626C129.355 75.0128 129.25 74.9871 129.164 74.9871C128.965 74.9871 128.773 75.0626 128.588 75.2137C128.404 75.3647 128.263 75.6006 128.165 75.9189C128.091 76.163 128.055 76.6579 128.055 77.4021V78.8544H127.444V74.5583ZM132.633 74.5583H133.226V76.5634C133.226 77.0529 133.255 77.3886 133.312 77.5734C133.396 77.8363 133.56 78.044 133.8 78.1964C134.04 78.3487 134.328 78.4256 134.661 78.4256C134.994 78.4256 135.276 78.3514 135.509 78.2031C135.74 78.0534 135.902 77.8593 135.989 77.6165C136.048 77.4507 136.079 77.1001 136.079 76.5634V74.5583H136.69V76.6646C136.69 77.2565 136.616 77.7015 136.466 78.0008C136.318 78.3015 136.092 78.5361 135.793 78.7047C135.493 78.8746 135.118 78.9596 134.666 78.9596C134.213 78.9596 133.837 78.8746 133.534 78.7047C133.232 78.5361 133.005 78.2988 132.856 77.9954C132.707 77.6921 132.633 77.2349 132.633 76.6254V74.5583ZM138.015 74.5583H138.608V75.3283C138.848 75.0343 139.112 74.8146 139.402 74.6703C139.693 74.526 140.008 74.4532 140.35 74.4532C140.697 74.4532 141.006 74.5341 141.275 74.6972C141.544 74.8604 141.743 75.0802 141.871 75.3566C141.999 75.6317 142.063 76.0618 142.063 76.6457V78.8544H141.47V76.8075C141.47 76.3139 141.446 75.9836 141.401 75.8177C141.329 75.5346 141.195 75.3215 140.999 75.1773C140.802 75.0343 140.546 74.9629 140.231 74.9629C139.869 74.9629 139.544 75.0735 139.259 75.2945C138.973 75.5144 138.784 75.7881 138.694 76.1144C138.637 76.3274 138.608 76.7158 138.608 77.2808V78.8544H138.015V74.5583ZM147.96 72.8999V78.8544H147.366V78.1154C147.116 78.3973 146.837 78.609 146.526 78.7492C146.216 78.8894 145.876 78.9596 145.508 78.9596C144.853 78.9596 144.294 78.7398 143.83 78.3002C143.366 77.8593 143.135 77.3253 143.135 76.6942C143.135 76.078 143.369 75.5494 143.837 75.1112C144.304 74.673 144.867 74.4532 145.525 74.4532C145.905 74.4532 146.248 74.5287 146.556 74.6783C146.863 74.8281 147.134 75.0532 147.366 75.3539V72.8999H147.96ZM145.572 74.9871C145.24 74.9871 144.933 75.0626 144.654 75.2137C144.374 75.3633 144.151 75.5751 143.985 75.8475C143.82 76.1198 143.737 76.4084 143.737 76.7131C143.737 77.0138 143.82 77.3024 143.987 77.5774C144.154 77.8525 144.378 78.0669 144.66 78.2193C144.942 78.373 145.245 78.4498 145.568 78.4498C145.892 78.4498 146.201 78.3743 146.492 78.2219C146.785 78.0696 147.009 77.8646 147.166 77.6044C147.323 77.3455 147.401 77.0529 147.401 76.728C147.401 76.2331 147.225 75.8192 146.872 75.4861C146.52 75.153 146.087 74.9871 145.572 74.9871ZM151.823 78.8544V73.0455H153.123C154.06 73.0455 154.741 73.1156 155.164 73.2544C155.772 73.4527 156.247 73.7938 156.589 74.282C156.931 74.7687 157.102 75.3485 157.102 76.0227C157.102 76.6052 156.967 77.1163 156.695 77.5586C156.424 78.0008 156.071 78.3285 155.639 78.5389C155.206 78.7492 154.598 78.8544 153.817 78.8544H151.823ZM152.425 78.3042H153.148C154.012 78.3042 154.61 78.2543 154.944 78.1546C155.414 78.0116 155.785 77.7568 156.054 77.3873C156.323 77.0165 156.457 76.5648 156.457 76.0308C156.457 75.4712 156.311 74.9912 156.019 74.5947C155.728 74.197 155.321 73.9246 154.8 73.7776C154.409 73.6671 153.765 73.6118 152.868 73.6118H152.425V78.3042ZM162.132 77.4304L162.635 77.6758C162.47 77.9739 162.279 78.2153 162.062 78.3986C161.846 78.5807 161.603 78.7209 161.332 78.8166C161.06 78.9123 160.755 78.9596 160.413 78.9596C159.654 78.9596 159.062 78.7303 158.635 78.2719C158.207 77.8134 157.994 77.2956 157.994 76.7185C157.994 76.1751 158.175 75.6897 158.537 75.2649C158.996 74.7242 159.611 74.4532 160.38 74.4532C161.172 74.4532 161.806 74.731 162.279 75.2851C162.615 75.6762 162.787 76.1643 162.792 76.7509H158.604C158.616 77.2484 158.789 77.6556 159.122 77.9725C159.456 78.2907 159.869 78.4498 160.36 78.4498C160.597 78.4498 160.828 78.4121 161.052 78.3366C161.276 78.2611 161.466 78.1613 161.623 78.0359C161.78 77.9105 161.95 77.7096 162.132 77.4304ZM162.138 76.2736C162.058 75.9782 161.942 75.7436 161.789 75.5669C161.635 75.3903 161.433 75.2487 161.181 75.1408C160.93 75.033 160.665 74.979 160.389 74.979C159.931 74.979 159.538 75.1139 159.209 75.3849C158.968 75.5832 158.788 75.8784 158.664 76.2736H162.138ZM163.89 72.8999H164.484V76.2951L166.647 74.5583H167.511L164.961 76.6052L167.66 78.8544H166.815L164.484 76.9113V78.8544H163.89V72.8999ZM170.468 74.4532C171.182 74.4532 171.775 74.6918 172.245 75.1706C172.672 75.6061 172.886 76.1225 172.886 76.7185C172.886 77.3172 172.661 77.8404 172.208 78.288C171.757 78.7357 171.176 78.9596 170.468 78.9596C169.755 78.9596 169.172 78.7357 168.721 78.288C168.269 77.8404 168.043 77.3172 168.043 76.7185C168.043 76.1252 168.257 75.6102 168.685 75.1746C169.154 74.6932 169.749 74.4532 170.468 74.4532ZM170.465 74.9953C169.969 74.9953 169.544 75.1638 169.188 75.5022C168.832 75.8407 168.654 76.2506 168.654 76.7306C168.654 77.0394 168.736 77.328 168.897 77.5963C169.06 77.8633 169.28 78.0696 169.556 78.2153C169.831 78.3608 170.135 78.4337 170.465 78.4337C170.795 78.4337 171.099 78.3608 171.374 78.2153C171.65 78.0696 171.87 77.8633 172.032 77.5963C172.194 77.328 172.275 77.0394 172.275 76.7306C172.275 76.2506 172.096 75.8407 171.739 75.5022C171.382 75.1638 170.958 74.9953 170.465 74.9953ZM173.757 74.5583H174.368V75.1867C174.55 74.9386 174.742 74.7552 174.944 74.6339C175.146 74.5139 175.357 74.4532 175.575 74.4532C175.741 74.4532 175.917 74.5017 176.104 74.5988L175.793 75.0626C175.668 75.0128 175.563 74.9871 175.477 74.9871C175.278 74.9871 175.086 75.0626 174.901 75.2137C174.717 75.3647 174.576 75.6006 174.478 75.9189C174.404 76.163 174.368 76.6579 174.368 77.4021V78.8544H173.757V74.5583Z" fill="#032C7F"/>
</svg>
