<svg width="23" height="30" viewBox="0 0 23 30" fill="none" xmlns="http://www.w3.org/2000/svg">
<path d="M3.65546 30V0H11.5546C15.2241 0 17.9412 0.742297 19.7059 2.22689C21.4986 3.71148 22.395 5.86835 22.395 8.69748C22.395 10.6022 21.9608 12.2409 21.0924 13.6134C20.2241 14.958 18.9356 15.9944 17.2269 16.7227C15.5462 17.451 13.4594 17.8151 10.9664 17.8151H7.43697V30H3.65546ZM0 24.2857V21.5546H14.3697V24.2857H0ZM0 17.8151V14.6218H9.62185V17.8151H0ZM10.4202 14.6218C12.1289 14.6218 13.5714 14.4398 14.7479 14.0756C15.9524 13.7115 16.8767 13.1092 17.521 12.2689C18.1653 11.4286 18.4874 10.2801 18.4874 8.82353C18.4874 6.91877 17.8992 5.5042 16.7227 4.57983C15.5462 3.65546 13.7115 3.19328 11.2185 3.19328H7.43697V14.6218H10.4202Z" fill="#4D4D4D"/>
</svg>
