<svg width="32" height="32" viewBox="0 0 32 32" fill="none" xmlns="http://www.w3.org/2000/svg">
<path d="M8.49995 14.4999L14.4999 1C15.6934 1 16.838 1.4741 17.6819 2.31801C18.5258 3.16192 18.9999 4.3065 18.9999 5.49997V11.4999H27.4898C27.9247 11.495 28.3554 11.5847 28.7522 11.7628C29.1489 11.9408 29.5022 12.203 29.7876 12.5312C30.073 12.8594 30.2836 13.2457 30.4048 13.6633C30.5261 14.0809 30.5551 14.5199 30.4898 14.9499L28.4198 28.4498C28.3113 29.1652 27.948 29.8172 27.3967 30.2858C26.8454 30.7544 26.1433 31.008 25.4198 30.9998H8.49995M8.49995 14.4999V30.9998M8.49995 14.4999H3.99998C3.20434 14.4999 2.44128 14.816 1.87867 15.3786C1.31607 15.9412 1 16.7043 1 17.4999V27.9998C1 28.7955 1.31607 29.5585 1.87867 30.1211C2.44128 30.6837 3.20434 30.9998 3.99998 30.9998H8.49995" stroke="#4D4D4D" stroke-width="2" stroke-linecap="round" stroke-linejoin="round"/>
</svg>
