<svg width="30" height="25" viewBox="0 0 30 25" fill="none" xmlns="http://www.w3.org/2000/svg">
<path d="M27.4434 0.220723C27.4434 0.220723 30.2183 -0.861404 29.9862 1.76642C29.9098 2.84854 29.2162 6.63634 28.6762 10.7327L26.8263 22.8683C26.8263 22.8683 26.672 24.6461 25.2841 24.9554C23.897 25.2639 21.8156 23.8732 21.4299 23.564C21.1213 23.3318 15.6486 19.8533 13.7214 18.1533C13.1814 17.689 12.5643 16.7619 13.7986 15.6798L21.892 7.9499C22.817 7.02277 23.742 4.85851 19.8878 7.48633L9.09508 14.8291C9.09508 14.8291 7.86153 15.6026 5.54942 14.9069L0.53806 13.3605C0.53806 13.3605 -1.31191 12.2013 1.84875 11.042C9.55793 7.40919 19.0399 3.69924 27.442 0.220723H27.4434Z" fill="white"/>
</svg>
