<svg width="30" height="18" viewBox="0 0 30 18" fill="none" xmlns="http://www.w3.org/2000/svg">
<path fill-rule="evenodd" clip-rule="evenodd" d="M26.7029 12.0225C26.7029 12.0225 29.1284 14.418 29.7284 15.5265C29.7401 15.5425 29.7492 15.5602 29.7554 15.579C29.9999 15.9885 30.0599 16.3095 29.9399 16.5465C29.7374 16.938 29.0519 17.1345 28.8194 17.151H24.5324C24.2339 17.151 23.6129 17.073 22.8569 16.551C22.2794 16.1475 21.7049 15.483 21.1484 14.8335C20.3174 13.869 19.5989 13.032 18.8714 13.032C18.7795 13.0318 18.6882 13.047 18.6014 13.077C18.0509 13.251 17.3519 14.0355 17.3519 16.125C17.3519 16.779 16.8359 17.151 16.4744 17.151H14.5109C13.8419 17.151 10.3589 16.917 7.27039 13.6605C3.48589 9.6735 0.0868909 1.6755 0.0538909 1.605C-0.157609 1.0875 0.286391 0.8055 0.766391 0.8055H5.09539C5.67589 0.8055 5.86489 1.1565 5.99689 1.4715C6.14989 1.833 6.71689 3.279 7.64689 4.9035C9.15289 7.5465 10.0784 8.622 10.8179 8.622C10.9568 8.62241 11.0934 8.58619 11.2139 8.517C12.1799 7.986 11.9999 4.536 11.9549 3.825C11.9549 3.687 11.9534 2.2845 11.4584 1.6065C11.1044 1.1205 10.5014 0.9315 10.1369 0.8625C10.2344 0.7215 10.4414 0.5055 10.7069 0.378C11.3684 0.0479998 12.5639 0 13.7504 0H14.4089C15.6959 0.018 16.0289 0.1005 16.4969 0.219C17.4389 0.444 17.4569 1.0545 17.3744 3.1335C17.3504 3.7275 17.3249 4.3965 17.3249 5.184C17.3249 5.352 17.3174 5.5395 17.3174 5.73C17.2889 6.7965 17.2514 7.998 18.0044 8.4915C18.1021 8.55234 18.2148 8.58456 18.3299 8.5845C18.5909 8.5845 19.3724 8.5845 21.4919 4.947C22.4219 3.3405 23.1419 1.446 23.1914 1.3035C23.2334 1.224 23.3594 1.0005 23.5124 0.9105C23.6212 0.852593 23.7431 0.823666 23.8664 0.8265H28.9589C29.5139 0.8265 29.8904 0.9105 29.9639 1.1205C30.0869 1.461 29.9399 2.5005 27.6149 5.6445C27.2234 6.168 26.8799 6.621 26.5784 7.017C24.4709 9.783 24.4709 9.9225 26.7029 12.0225Z" fill="white"/>
</svg>
